<svg id="Layer_1" data-name="Layer 1" xmlns="http://www.w3.org/2000/svg" viewBox="0 0 436.11 618.94"><defs><style>.cls-1{fill:#ff8b00;}.cls-1,.cls-10,.cls-11,.cls-6,.cls-7,.cls-8,.cls-9{stroke:#000;stroke-miterlimit:10;}.cls-1,.cls-6,.cls-7{stroke-width:4px;}.cls-2{fill:#0162af;}.cls-2,.cls-3,.cls-4,.cls-5{opacity:0.72;}.cls-3{fill:#f7cd33;}.cls-4{fill:#b11c12;}.cls-5{fill:#006839;}.cls-11,.cls-6,.cls-8{fill:none;}.cls-10,.cls-7{fill:#ffc;}.cls-8{stroke-width:3px;}</style></defs><path class="cls-1" d="M66,127.74a97.75,97.75,0,0,0,9.7,6.64c2.3,1.38,5.9,3.4,19.92,9.19s17.38,6.64,20.93,7.15a55.69,55.69,0,0,0,10.22.51l52.59.05a19.68,19.68,0,0,1,9.7,0c5.13,1.39,7.87,4.68,12.26,9.14,9.61,9.78,14.42,14.67,18.17,14.71,3.34.05,4.88-2,19.27-15.52,3.8-3.56,6.95-6.47,9-8.38l27.57.21a184.68,184.68,0,0,0,27.58,0,151.35,151.35,0,0,0,30.12-4.8,131.07,131.07,0,0,0,39.32-18.39l47.49,42.9,8.68,8.17s-11.24,24.08-16.85,38.3c-9.29,23.55-12.18,42.94-14.29,57.19a303.9,303.9,0,0,0-2.05,72.51c1.76,19,4.71,48.24,19.92,82.21,5.81,13,11.38,23.52,16.34,30.13,1.53,2-30.13,53.61-30.13,53.61-.95,2.84-2.69,6.38-6.13,8.18s-6.27.69-10.72,1c-5,.36-8.24,2.22-14.3,5.61-8.6,4.82-9.92,7.69-19.4,14.81-3.67,2.76-3.12,2.07-19.92,12.77s-16.07,10.58-19.91,12.76c-12.86,7.3-15.52,5.59-30.64,12.26-9.7,4.28-25.86,11.4-42.42,25-8.3,6.8-12.13,11.48-18.86,11.27s-10.05-5.32-19.4-12.76c-4.54-3.61-13.24-8.2-30.64-17.36-3.79-2-16.65-8.73-34.21-16.85-16.67-7.72-18.62-7.92-27.07-12.77s-15.4-8.84-23.49-15.83C79,536.7,73.21,532.44,68,527.57c-3.29-3.08-5.25-5.12-8.68-6.12-6-1.75-11.83,1-15.32,3.06L9.79,468.34a14.73,14.73,0,0,1-4.08-8.17c-1-8.16,7-13.54,13.78-24,3.17-4.91,5.18-10.93,9.19-23,9.3-27.91,12.25-55.65,12.77-60.77A313.81,313.81,0,0,0,38.9,269.7,305.89,305.89,0,0,0,8.26,178.81Z"/><path class="cls-2" d="M223.89,543.27s0,.24,0,.24c.65,0,0-168.66,0-168.66l136.31.55,22.43.55h0c.58,0,1,0,1.36,0a5.37,5.37,0,0,1,.69.18l2.25,3.53.47,2.33s.7,3.24,1,4.55c.39,1.77,1,4.3,1.79,7.5q1.43,5.16,2.86,10.31a151.06,151.06,0,0,0,8.17,23.22c4.09,9.12,6.14,13.68,9.47,17.2,2.72,2.87,4.87,4.17,5.54,7.1,1.12,4.83-2.73,9.89-6.31,13.5q-9.76,17.36-19.54,34.69a60.3,60.3,0,0,1-4.89,7.25,61.72,61.72,0,0,1-4.1,4.75,2.87,2.87,0,0,0-2.31-.31,3,3,0,0,0-1.82,1.77,1.78,1.78,0,0,0-.21-.78c-1-1.86-5.72-1.07-7.26-.81-8.15,1.38-28.25,19.62-38.9,27.46-5.35,3.94-19.66,10.74-48.28,24.35-4.8,2.29-8.81,4.15-11.57,5.44a163.86,163.86,0,0,1-16.41,8.93c-4.13,2-8.11,3.62-11.88,5l-18.84,16.36C223.68,556.94,223.73,543.27,223.89,543.27Z"/><path class="cls-3" d="M212.5,541.92s0,.23,0,.23c-.65,0,0-166.35,0-166.35l-135.32.54-22.27.54h0c-.57,0-1,0-1.35,0a5.13,5.13,0,0,0-.68.18l-2.23,3.48-.48,2.3s-.68,3.19-1,4.49c-.38,1.74-1,4.24-1.77,7.39q-1.43,5.08-2.84,10.18c-1.18,11.33-4.87,18.45-8.11,22.9-1.21,1.66-5.57,7.34-11,15.57-2.4,3.61-3.62,5.6-3.86,8.39-.56,6.2,4.12,11.27,6.26,13.32l19.4,34.21c1.59,2.37,3.21,4.76,4.85,7.15s3.34,4.84,5,7.21c.67-.26,1.78-.66,3.17-1.08A53.51,53.51,0,0,1,67.68,511c6.08-.76,26.61,18.31,38.62,27.09,5.31,3.88,19.51,10.59,47.92,24,4.77,2.26,8.75,4.1,11.49,5.36A159.65,159.65,0,0,0,182,576.31c4.1,1.92,8.05,3.56,11.8,5l18.7,16.14C212.71,555.4,212.66,541.92,212.5,541.92Z"/><path class="cls-4" d="M212.5,198c-.72-7.53,0,166.11,0,166.11l-135.32-.54L54.91,363h0a4.39,4.39,0,0,1-2-.21c-.5-.38.13-1.47.5-4.36.1-.84.34-3.37.26-2.53.43-4.55.44-4.64.44-4.64.83-8.42,2.56-11.63,2.56-21.33h0c-.13-5.07-.52-16.29-2-30.26-2-18.34-4-32.28-8.88-50.43a284,284,0,0,0-21.57-56.14L76,142.27c.92.73,2.26,1.77,3.89,2.95h0a119.4,119.4,0,0,0,16.56,10.09,219.27,219.27,0,0,0,27.8,11.13c10.46.59,21.4,1,32.77,1.08,12,.1,23.45-.11,34.42-.56l21,18.5Z"/><path class="cls-5" d="M221,197.87c.74-7.53,0,166.12,0,166.12l138.2-.54L382,362.9h0c1.18,0,1.8,0,2.08-.21.51-.37-.14-1.47-.51-4.36-.1-.84-.35-3.36-.26-2.52h0c-.45-4.56-.46-4.65-.46-4.65-.84-8.41-2.61-11.63-2.61-21.32h0c.13-5.08.53-16.3,2.07-30.27,2-18.34,4.14-32.28,9.07-50.42a280,280,0,0,1,22-56.14l-53-50.88c-.95.73-2.31,1.77-4,3a136.85,136.85,0,0,1-16.91,10.09c-15.19,7.41-38.75,10.51-38.75,10.51a210.93,210.93,0,0,1-53.34.08l-25.66,24.58Z"/><path class="cls-6" d="M77.44,145.09a88.21,88.21,0,0,0,9,6.17c2.13,1.28,5.46,3.16,18.45,8.54s16.11,6.17,19.4,6.64a51.43,51.43,0,0,0,9.46.48l48.74,0a18.15,18.15,0,0,1,9,0c4.75,1.29,7.28,4.34,11.35,8.49,8.91,9.08,13.36,13.62,16.83,13.67,3.1,0,4.53-1.89,17.86-14.42,3.53-3.31,6.44-6,8.37-7.78l25.55.19a171.08,171.08,0,0,0,25.55,0,140.31,140.31,0,0,0,27.91-4.46,121.29,121.29,0,0,0,36.43-17.08l44,39.85,8,7.59S403,215.38,397.76,228.58c-8.61,21.88-11.29,39.9-13.25,53.13a282.59,282.59,0,0,0-1.89,67.36c1.62,17.67,4.36,44.82,18.45,76.38,5.38,12.05,10.54,21.84,15.14,28,1.42,1.9-27.92,49.81-27.92,49.81-.87,2.63-2.49,5.93-5.67,7.59s-5.82.65-9.94.95c-4.6.34-7.63,2.07-13.25,5.22-8,4.47-9.2,7.14-18,13.76-3.39,2.55-2.89,1.91-18.45,11.85s-14.89,9.84-18.45,11.86c-11.92,6.78-14.38,5.2-28.39,11.39-9,4-24,10.59-39.31,23.2-7.69,6.33-11.24,10.67-17.47,10.48s-9.31-4.95-18-11.86c-4.21-3.36-12.27-7.61-28.39-16.13-3.51-1.86-15.42-8.1-31.7-15.65-15.44-7.17-17.24-7.36-25.07-11.86S102,535.83,94.47,529.33c-5-4.33-10.32-8.28-15.14-12.81-3-2.86-4.87-4.76-8-5.69-5.51-1.61-11,.91-14.2,2.85L25.39,461.5a13.73,13.73,0,0,1-3.78-7.59c-.89-7.58,6.51-12.58,12.77-22.3,2.94-4.56,4.8-10.15,8.52-21.34,8.62-25.93,11.35-51.7,11.83-56.45A292.2,292.2,0,0,0,52.36,277,284.48,284.48,0,0,0,24,192.53Z"/><line class="cls-6" x1="212.5" y1="185.46" x2="212.5" y2="597.42"/><line class="cls-6" x1="223.75" y1="599.54" x2="223.75" y2="187.59"/><line class="cls-6" x1="384.19" y1="363.99" x2="52.49" y2="364.53"/><line class="cls-6" x1="384.23" y1="376.35" x2="52.54" y2="376.89"/><path class="cls-7" d="M174.39,321.45c1.07-2.32,5-2.68,6.61-2.82,13.09-1.09,39.09-.53,39.11-.53h0s9.65-.35,17.6-.57c19.58-.54,22.1-.1,24.17,2,2.82,2.93,2,5.82,5.66,9.21a14.41,14.41,0,0,0,9.15,3.4v57.18c-.05,5.8.23,10.47.51,13.79.32,3.91.65,6-.69,7.83-1.85,2.58-4.79,1.85-8,3.74-2.3,1.36-5.07,4.26-6.46,11.24H188.17c-1.6,0-4.08.05-7.15.17-3.32.13-3.71.21-4.41-.11-3.12-1.42-2.07-6.22-4.63-10-1.4-2.06-4.31-4.45-11-5.21v-55c.12-2.51.26-6.55.17-11.58-.11-6.4-.47-7.73.68-9.53,2.42-3.77,6.9-2.4,11.21-8.41C174.53,324.17,173.87,322.56,174.39,321.45Z"/><path class="cls-8" d="M77.28,185.49h71.15a43.26,43.26,0,0,1,0,10.89c-.52,4.07-1.17,4.46-1.71,8.51-.9,6.88.69,7.91-.34,13.28-.6,3.12-1.51,7.89-5.1,10.21-2.61,1.69-5.81,1.55-11.92,0-8.33-2.12-13.84-4.78-21.1-8.17-16-7.46-18.11-8-22.13-11.58a44.17,44.17,0,0,1-9.19-11.57Z"/><path class="cls-8" d="M76.94,197.06a15,15,0,0,0,9.87-1.7A15.44,15.44,0,0,0,94,185.49"/><path class="cls-8" d="M136.51,185.49a8.86,8.86,0,0,0,11.92,10.89"/><circle class="cls-8" cx="137.06" cy="209.49" r="9.02"/><path class="cls-9" d="M107.57,191.38c.46-.8,1.78-.29,6.49-.32s5.69-.37,6.11.32c.92,1.52-2.15,6.36-5.71,6.44a5.6,5.6,0,0,1-3.14-1.1C109.06,195.32,106.89,192.58,107.57,191.38Z"/><path class="cls-8" d="M77.89,199.87c-.47,1.92-1.24,5-2.21,8.85-1.55,6.13-2.71,10.6-4.25,16.85-1.69,6.85-2.54,10.3-2.56,11.4-.09,5.28,2.33,9.42,6.13,16.52.16.3,2.65,4.46,4.15,7l1.13,1.88c4.46,7.33,6,22.63,6,22.63.49,4.17,1.84,16.53-1.53,27.24-1.14,3.65-2,6.35-4.42,9-2.79,3.06-5.61,3.85-5.45,5.62.2,2.21,4.81,3.44,6,3.74a18.94,18.94,0,0,0,10.89-.51c2.26-.74,4.58-1.89,10-6.3,4.89-3.94,6.67-5.95,12.77-11.57s8.92-8.21,11.4-9.7a38,38,0,0,1,13-4.93c.55-.09,1.43-.24,2.61-.35,4-.36,9.66-1,13.62,2,4.24,3.25,6.21,9.4,4.77,15-2,7.85-9.73,10.4-10.22,10.55l-21.78.17c-2.61.26-5.63.23-6.33-1.22-1.09-2.25,3.94-6.95,7.35-9.33a27,27,0,0,1,31-.17"/><path class="cls-8" d="M140.73,297.32l21.59-39.05,19.74-23.55q.31-16.38.62-32.77a1.77,1.77,0,0,0-.62-1.22c-1.45-1.08-5.23,1.35-7.49,3.89-3.46,3.9-4.06,8.85-4.42,11.86a31.23,31.23,0,0,0,0,7.44l-22.3,15.58a3.09,3.09,0,0,1-1.87,1.42c-1.73.35-3.38-2.12-3.87-2.78-1.68-2.29-5.31-5.53-14-9.62"/><path class="cls-8" d="M85.54,209a23,23,0,0,0,0,7.81,22.55,22.55,0,0,0,3.53,8.68c2.68,3.85,5.36,4.68,9.85,7.73a66.1,66.1,0,0,1,13.2,12.46,49.32,49.32,0,0,1,8.17,15.84"/><path class="cls-8" d="M79.15,260.46h32.28c15.59.62,26.58.37,33.87,0,8.1-.4,16.26.78,24.34,0a14.65,14.65,0,0,1,7,.51c6.27,2.31,9.34,9.46,10.89,14.64H170.15c-1.35.26-3.21.39-4.43-.68-1.55-1.37-.71-3.55-1.78-4.95-2.24-3-11,.1-11.66.36-19.24,6.94-41.95,18.36-43.41,16.34-.5-.71,2.17-2.21,2.73-6,.62-4.21-1.92-7.88-4.6-11.75a41,41,0,0,0-8-8.51"/><path class="cls-8" d="M256.77,222.19c.29-2.65,4.16-2.67,10-6.64,6.36-4.37,5.5-7,12.51-11.49,3.09-2,5.68-3.63,9.44-4.09,4.1-.5,5.61.88,8.69,0,3.85-1.09,5.51-4.38,7.91-7.66a52,52,0,0,1,16.09-13.53c2.16-1.13,11.52-5.86,23-3.06,2.33.57,13.69,3.34,19.41,14.29,5.63,10.79,1.63,21.52.51,24.52-3.39,9.07-9.88,14.13-13.79,17.1-6.94,5.28-10.22,4.83-25.27,11.49-12.67,5.61-10.2,5.86-20.94,10.47-16.72,7.18-23.41,6.88-28.6,14.3-.35.51-5.78,8.46-2.81,13,2.89,4.41,11.82,2.85,13.54,2.55,6.95-1.21,10.19-4.59,17.87-10a122.07,122.07,0,0,1,25.53-14c13.06-5,20.48-4.32,22.47-4.08,4.39.52,10.18,1.2,14.55,5.61,6.72,6.78,6.42,18.62,2.56,26.3C366,294,360,297.47,352.51,301.84c-5.12,3-6.5,2.87-13.53,6.9-7.85,4.5-11.77,6.74-13.53,9.45-6.63,10.18,3.37,25.32-.25,27.31-2.27,1.25-7.43-3.95-9.71-6.89A23.62,23.62,0,0,1,310.64,323c.5-7.5,4.75-12.42,7.92-16.09,8.53-9.88,20.37-13.78,21.19-14,4.82-1.53,7.8-1.54,11.23-4.6.82-.73,6.55-5.83,4.85-11.23-1.17-3.74-5.34-5.82-8.68-6.13-3.86-.35-6.63,1.67-10.72,4.34-5.37,3.5-11.18,6.28-16.6,9.7-8.36,5.29-16.26,10.3-26.55,13.79-8.8,3-14.73,5-21.45,2.55-8.16-3-12-10.51-13.27-13-.86-1.69-5.91-11.6-2.05-21.7,2.18-5.67,6.29-9.12,13.79-14a207.51,207.51,0,0,1,32.17-17.11c3.3-1.42,26.11-11.25,40.34-22.21,1.53-1.18,4.93-3.88,5.62-8.17a12.34,12.34,0,0,0-5.62-12c-5.8-3.44-13.12.27-17.1,2.3-2.8,1.42-1.27,1.18-9.71,7.15-6.46,4.56-8.75,5.68-11,9.19-1.25,2-1,2.32-3.06,5.87-2.29,3.87-3.5,5.92-5.62,7.4s-3.11,1.12-9.44,2c-7.83,1.14-7.71,1.79-13.28,2.29s-8.21.71-11.23-.76C260.17,227.48,256.47,224.87,256.77,222.19Z"/><path class="cls-9" d="M282.05,216.06c.31-.85,1.74-.71,4.85-1.28,4.59-.85,6-2,6.64-1.28.82.91-.28,3.84-2.3,5.37a6.42,6.42,0,0,1-7.15.25C283,218.44,281.69,217,282.05,216.06Z"/><path class="cls-8" d="M345.34,195.18a23.63,23.63,0,0,1,8.45,4.54c7.87,6.61,8.66,16.32,8.78,18.55"/><path class="cls-8" d="M274.39,281a16.56,16.56,0,0,0-1.79,7.18c-.11,7.85,5.65,13.09,6.87,14.15"/><path class="cls-8" d="M353.07,286.17a28.29,28.29,0,0,1-3.77,17.41"/><path class="cls-8" d="M258.61,226a26,26,0,0,0-13.07,18.19"/><path class="cls-8" d="M249.25,234.7a24,24,0,0,0,3.43,11.23"/><path class="cls-8" d="M124.84,440.22a58.57,58.57,0,0,1,57.86,25.6,59.58,59.58,0,0,1,9.06,22.6v66.27a16,16,0,0,1,0-31.88H124.84c-3.66,1.11-5,.65-5.53,0-1.87-2.28,2.46-11.41,8.8-13,4.18-1.09,7.07,1.64,9.31-.25,1.7-1.44.58-3.48,1.51-8a25,25,0,0,1,6.54-12.05,26.86,26.86,0,0,1,8.3-5.77,30.09,30.09,0,0,1,20.88-1c12.12,4.21,16.51,15.25,17.11,16.82"/><path class="cls-8" d="M106.74,469.42a18.19,18.19,0,0,1-9.45-3.07c-.84-.57-7.73-5.44-7.66-13.53.08-9.27,9.22-14.17,10-14.55,9.06-4.68,18.79.29,22.21,2,1,.52,13.5,7.15,16.34,20.94a28,28,0,0,1,.52,7.4l-29.37,27.49s-21,.28-21.19,0c-1.29-1.58,1-6,4.09-8.34a12.42,12.42,0,0,1,9.19-2Z"/><path class="cls-8" d="M87.74,460.48c1,1.49-1.6,6.21-18.28,20.94H53.89c-3.39,1.07-4.32.32-4.6,0-1.27-1.47.8-5.77,3.58-8.17a12.45,12.45,0,0,1,8.42-2.81l8.43-12.26c.09-1,.36-2.37,1.28-2.81,1.52-.72,3.41,1.75,6.63,3.32C82.9,461.26,86.78,459,87.74,460.48Z"/><path class="cls-8" d="M90.14,460.48a31.58,31.58,0,0,1-8.93-1.79c-2.5-.89-9.27-3.4-14-9.95a27.7,27.7,0,0,1-3.32-25.54,29.12,29.12,0,0,1,13.27-15.06c9.09-4.73,18.32-2.84,23.49-1.79a97,97,0,0,1,15.58,5.11c6.48,2.62,7.55,3.71,11.23,4.08,7.16.73,11-2.6,13-.51s.13,6.72-1,9.71a24.66,24.66,0,0,1-7.4,11c-2.26,1.85-5.7,4.67-10.22,4.59-3.9-.07-4.29-2.23-9.16-3.46-2.15-.55-8.8-1.84-14.84,1.93a18.29,18.29,0,0,0-7.28,9.28,19.94,19.94,0,0,0-.38,12.42"/><path class="cls-8" d="M62.16,433.44a46.78,46.78,0,0,1,10.72-11.77A36,36,0,0,1,84.52,415c10-3.21,19.64-.6,23,.51s5.62,2.45,11.64,4.09c3.37.92,6.21,1.46,8.12,1.79"/><path class="cls-8" d="M124.16,414.85a20.26,20.26,0,0,0,2.75,6.82,20.83,20.83,0,0,0,9.27,7.82"/><circle class="cls-8" cx="83.26" cy="399.32" r="5.75"/><circle cx="103.26" cy="418.31" r="4.82"/><path class="cls-8" d="M123.69,482.66a23,23,0,0,1,10.47,6.76,24.54,24.54,0,0,1,5.31,10"/><path class="cls-8" d="M297.54,421.54a36,36,0,0,1-.09-6.3,18.56,18.56,0,0,1,.34-3.15c2.79-8.21,11.38-10.73,12.26-11h33.44l19.15,48.25-17.36-15.83V444c-3.66-1.84-6.62-3.45-8.68-4.6-6.58-3.67-6.16-3.87-9.18-5.22-5.24-2.34-7.29-2.07-8.44-4.22s.15-3.52-.25-6.9a14.79,14.79,0,0,0-3.83-7.91l-17.45.08"/><path class="cls-8" d="M314,401.12q.19,7,.38,14"/><path class="cls-9" d="M322.17,407.37c.37-.72,2.2-.7,5.88-.64,3.35,0,5,.09,5.36.77.68,1.41-2.11,5.51-5.61,5.51S321.47,408.78,322.17,407.37Z"/><path class="cls-8" d="M309.88,430.14a11.46,11.46,0,0,1,6.12,0,35.56,35.56,0,0,1,10.73,4.42c4.39,2.91,9.53,6.32,12.08,12.94,3.15,8.17.09,15.91-1,18.72s-4.34,9.7-19.91,20.43a146.78,146.78,0,0,1-23.83,13.27c-11.34,5.11-26.48,11.56-44.94,18.39l2.55-3.75-4.93,1.19,58-82.21a11,11,0,0,1,2-1.87A11.84,11.84,0,0,1,309.88,430.14Z"/><path class="cls-8" d="M359,446a60.35,60.35,0,0,1-1.09,9.82,61.3,61.3,0,0,1-8.17,20.59A63.76,63.76,0,0,1,331.49,495a68.19,68.19,0,0,1-26,11.74,74.45,74.45,0,0,1-17.53,1.36,81.68,81.68,0,0,1-10.37-1"/><path class="cls-8" d="M262.2,513.32l-16.66,24.22h22a10.39,10.39,0,0,0,5.28,0c5-1.41,7.42-6.77,10.21-13.28a73,73,0,0,0,4.94-17"/><polyline class="cls-8" points="338.59 489.46 338.59 498.9 356.02 498.9"/><path class="cls-8" d="M346.81,513.2a6.33,6.33,0,0,1-1.53-4.08c.06-1.51.85-3,7.83-8.35,5.48-4.2,6.82-4.69,8.17-4.93s4.43-.8,7.15,1.19a8,8,0,0,1,2.72,3.74"/><path class="cls-8" d="M356,498.61a8.79,8.79,0,0,1,3.22,2.68,9,9,0,0,1,1.7,5.61"/><polyline class="cls-8" points="306.03 508.15 306.03 517.59 323.46 517.59"/><path class="cls-8" d="M314.25,531.89a6.34,6.34,0,0,1-1.53-4.09c.06-1.51.85-3,7.83-8.34,5.48-4.2,6.82-4.69,8.17-4.94s4.43-.8,7.15,1.2a8,8,0,0,1,2.72,3.74"/><path class="cls-8" d="M323.46,517.3a8.84,8.84,0,0,1,3.22,2.67,9,9,0,0,1,1.7,5.62"/><path d="M246.24,408.87a.61.61,0,0,1,.15.3.68.68,0,0,1,.05.25c0,.37-.3.56-.92.56a29.92,29.92,0,0,1-3.05-.13q-2.53-.18-3.51-.18c-1.1,0-2.74.09-4.92.26a12.84,12.84,0,0,1-1.75.05c-.58,0-.87-.21-.87-.62a.53.53,0,0,1,.16-.41,27.7,27.7,0,0,1,2.2-1.79c1.06-.82,1.59-1.56,1.59-2.21v-44.7a26.8,26.8,0,0,1-6.59,1.79,48.48,48.48,0,0,1-7.36.56,46,46,0,0,1-9.53-1.17,48.7,48.7,0,0,1-9.54-3V405q0,1,1.56,2.16a27.56,27.56,0,0,1,2.18,1.71.71.71,0,0,1,.16.3,1,1,0,0,1,.05.25c0,.37-.31.56-.93.56a30.17,30.17,0,0,1-3.06-.13c-1.7-.12-2.87-.18-3.52-.18-1.1,0-2.75.09-4.94.26a12.84,12.84,0,0,1-1.75.05c-.58,0-.87-.21-.87-.62a.56.56,0,0,1,.15-.41c.1-.13.84-.73,2.2-1.79,1.06-.82,1.59-1.56,1.59-2.21V358a8.52,8.52,0,0,0-1.23-.1,12.15,12.15,0,0,0-6.15,1.59q-3.28,1.89-3.28,5a4,4,0,0,0,.67,2.41,4.06,4.06,0,0,0,1.28,1.08,4.64,4.64,0,0,0,2.36.51,2.78,2.78,0,0,0,.92-.1c.41-.11.62,0,.62.36a1,1,0,0,1-.41.66,7.92,7.92,0,0,1-1.9,1.23,7.33,7.33,0,0,1-3.13.72,7,7,0,0,1-4.36-1.38,5.66,5.66,0,0,1-2.2-4.77,9.56,9.56,0,0,1,1.84-5.9,14,14,0,0,1,4.62-3.64,14.82,14.82,0,0,1,3.89-1.38,28.37,28.37,0,0,1,6.46-.67V343.22c0-.64-.51-1.38-1.53-2.2-.76-.58-1.51-1.18-2.26-1.79a.81.81,0,0,1-.08-.62c.06-.27.32-.41.8-.41a30.81,30.81,0,0,1,3.09.13q2.56.18,3.6.18c1.37,0,2.77-.05,4.19-.16s2.22-.15,2.39-.15c.62,0,.93.19.93.56a.87.87,0,0,1-.21.57A26.72,26.72,0,0,1,204,341c-1.07.82-1.61,1.56-1.61,2.2v11a58.31,58.31,0,0,0,9.85,3.41,41.83,41.83,0,0,0,10.35,1.51,33.74,33.74,0,0,0,5.64-.36,31.15,31.15,0,0,0,7.18-2.41V343.22c0-.64-.51-1.38-1.54-2.2-.75-.58-1.5-1.18-2.25-1.79a.76.76,0,0,1-.08-.62c.05-.27.31-.41.79-.41a30.57,30.57,0,0,1,3.08.13c1.71.12,2.9.18,3.59.18,1.36,0,2.76-.05,4.18-.16s2.21-.15,2.38-.15c.62,0,.92.19.92.56a.92.92,0,0,1-.2.57,26.88,26.88,0,0,1-2.1,1.69c-1.06.82-1.59,1.56-1.59,2.21V405c0,.65.51,1.37,1.54,2.16C245.45,408.2,246.17,408.77,246.24,408.87Z"/><path class="cls-10" d="M.54,144.93c.41.32,3.51-3.47,10-10,5.83-5.86,9.46-9.51,14-13,7.36-5.65,14-8.44,20-11a140.5,140.5,0,0,1,22-7c4.14-1,6.21-1.54,9-2,6-1,8-.63,12-2,3.85-1.3,8.31-3.73,8-5-.07-.25-.42-.85-7-1-5.46-.12-9.33.2-15,0-5.22-.18-5.91-.58-6-1-.2-.83,2-2.06,6-4,9.86-4.73,14-6,14-6,22.56-6.9,17.68-6.05,29-9,9.08-2.36,20.46-5.32,36-8a403.78,403.78,0,0,1,45-5,433.46,433.46,0,0,1,61,1c35.54,3.06,60.51,9.54,66,11,10.82,2.88,17.21,5.26,30,10,20.8,7.73,21.11,9.53,21,10-.37,1.52-8.13,1.49-13,1-6.76-.67-11.46-2.56-14,0a2.65,2.65,0,0,0-1,2c.35,2.56,7.81,2.89,18,5,0,0,6.61,1.37,15,4a119.8,119.8,0,0,1,22,10c21.23,12.47,31.9,30.81,33,30,1.67-1.24-26-42-26-42h0a7.09,7.09,0,0,1,1-2c1.94-1.23,19.45,24.87,21,24,.83-.46-2.42-9-8-19,0,0-11.44-20.43-27-35-14.56-13.62-69.94-45.19-197-42-76.6,1.93-119.56,3.65-152,36-17.07,17-36.41,47.69-36,48,.12.1,2.13-2.59,6-6,5.3-4.68,12.13-9,13-8,.57.64-1.75,3.24-6,9-.84,1.13-5.23,7.76-14,21C1.48,142.6.25,144.71.54,144.93Z"/><path class="cls-10" d="M67.54,92.93q-3-4-6.21-8.11c-1.61-2-3.2-4-4.79-5.89h0c-6.51-4.55-8-10.38-16-24-.84-1.42-.95-1.58-1-2-1-7.11,22.35-15.94,41-23,6.4-2.42,11.72-4.43,20-7a354.23,354.23,0,0,1,48-11,427.92,427.92,0,0,1,56-5,441.43,441.43,0,0,1,55,2,354,354,0,0,1,50,8s7.39,1.9,47,15h0c5.26,2.51,41,19.56,45,22a2.72,2.72,0,0,1,1,1c1.29,2.38-2,6.47-4,9-6.93,8.73-16.1,16-21,26-.2.4-.87,1.87-2,2a2.73,2.73,0,0,1-2-1l-6-3c-10-5-26-10-26-10a425.93,425.93,0,0,0-49-12,377.57,377.57,0,0,0-50-5,444.51,444.51,0,0,0-54,1c-29,2.33-48.75,6.81-76,13a144.55,144.55,0,0,0-28,9,138.39,138.39,0,0,0-17,9"/><path class="cls-11" d="M87.54,82.93a40.41,40.41,0,0,1,3,4,39.35,39.35,0,0,1,4,8"/><path class="cls-11" d="M354.9,82.75a39.26,39.26,0,0,0-3,4,38.85,38.85,0,0,0-4,8"/><path d="M104.64,69.19a.42.42,0,0,1,.16.11l.09.11c.1.18,0,.35-.31.51a13.34,13.34,0,0,1-1.52.74c-.86.38-1.45.66-1.77.83q-.81.44-2.34,1.41a8.37,8.37,0,0,1-.84.49c-.29.15-.49.12-.59-.08a.26.26,0,0,1,0-.24,12,12,0,0,1,.61-1.45,1.83,1.83,0,0,0,.2-1.5L86.6,48.23a14.76,14.76,0,0,1-2.76,2.6A27.09,27.09,0,0,1,80.39,53a25,25,0,0,1-5,1.92A26.74,26.74,0,0,1,70,56L82.14,78.78c.17.32.61.54,1.33.65,1,.15,1.46.24,1.52.27a.29.29,0,0,1,.15.11.44.44,0,0,1,.09.11c.1.18,0,.35-.31.51a16.26,16.26,0,0,1-1.53.74c-.86.38-1.45.66-1.77.83-.54.29-1.32.76-2.35,1.42a5.69,5.69,0,0,1-.85.48c-.28.15-.48.13-.59-.07a.34.34,0,0,1,0-.24c0-.09.22-.58.61-1.46a1.77,1.77,0,0,0,.2-1.49l-12.28-23a3.94,3.94,0,0,0-.63.27,6.75,6.75,0,0,0-2.6,2.39,3.16,3.16,0,0,0-.31,3.3,2.22,2.22,0,0,0,1,1,2.28,2.28,0,0,0,.91.19A2.53,2.53,0,0,0,66,64.43a1.66,1.66,0,0,0,.43-.3c.17-.15.3-.15.39,0a.51.51,0,0,1,0,.43,4.28,4.28,0,0,1-1.95,2.27,3.8,3.8,0,0,1-2.49.46A3.13,3.13,0,0,1,60,65.56a5.33,5.33,0,0,1-.64-3.37,7.65,7.65,0,0,1,1.31-3,8.14,8.14,0,0,1,1.54-1.7,16.06,16.06,0,0,1,3-2l-2.71-5.07c-.17-.32-.61-.54-1.33-.68-.52-.08-1-.18-1.57-.28a.44.44,0,0,1-.2-.29c0-.14,0-.28.28-.41s.68-.35,1.55-.74,1.47-.68,1.81-.85c.67-.36,1.34-.75,2-1.18l1.13-.7c.3-.16.51-.15.6,0a.47.47,0,0,1,.05.33c0,.06-.21.53-.6,1.38a1.81,1.81,0,0,0-.21,1.5l2.87,5.38A32.25,32.25,0,0,0,74.56,53,23,23,0,0,0,80,51a20.52,20.52,0,0,0,2.67-1.65,17.29,17.29,0,0,0,2.88-3.06l-3.43-6.43a1.84,1.84,0,0,0-1.33-.67l-1.58-.29a.45.45,0,0,1-.2-.28c-.05-.15,0-.29.28-.41a17.08,17.08,0,0,1,1.54-.74c.87-.39,1.47-.68,1.81-.85.67-.36,1.34-.75,2-1.17s1-.66,1.13-.7q.45-.24.6,0a.53.53,0,0,1,0,.33,14.27,14.27,0,0,1-.59,1.38,1.83,1.83,0,0,0-.2,1.5l16.16,30.25c.17.31.61.53,1.32.65Q104.55,69.14,104.64,69.19Z"/><path d="M135.8,43.09a23,23,0,0,1-1.5,14.84q-3.53,7.82-10.94,9.49-7,1.59-12.93-3.51a22.75,22.75,0,0,1-7.2-12.56,25.79,25.79,0,0,1-.19-11.6,14.16,14.16,0,0,1,4.51-7.87,2.28,2.28,0,0,1,.64-.38c.17,0,.27,0,.3.14s-.08.45-.35.81a13.3,13.3,0,0,0-1.84,3.36,16.42,16.42,0,0,0-.85,5.41A40.71,40.71,0,0,0,106.61,50a19.1,19.1,0,0,0,6.68,10.9q5.37,4.43,11.06,3.14A11,11,0,0,0,132,58.38q2.67-4.92,1-12.39a25.66,25.66,0,0,0-7.36-13.28q-5.36-5.1-10-4.06a4.56,4.56,0,0,0-2.75,1.59A3.16,3.16,0,0,0,112.4,33a2.77,2.77,0,0,0,.89,1.5,1.65,1.65,0,0,0,1.55.43l.41-.12a1.1,1.1,0,0,0,.46-.36,1.37,1.37,0,0,0,.33-.51,2.56,2.56,0,0,0,.11-.46,3.7,3.7,0,0,0,.06-.41c0-.11,0-.17.07-.19a.42.42,0,0,1,.32.11,2.73,2.73,0,0,1,.57,1.27c0,.09,0,.18.07.28a1.36,1.36,0,0,0,0,.29,2.94,2.94,0,0,1-.6,2A3.06,3.06,0,0,1,114.81,38a3.74,3.74,0,0,1-3.22-.68,4.88,4.88,0,0,1-1.86-3,5.52,5.52,0,0,1,1.39-5.1,8.73,8.73,0,0,1,4.73-2.7q6.91-1.56,12.68,3.57A23.81,23.81,0,0,1,135.8,43.09Z"/><path d="M173.42,15.78a3.11,3.11,0,0,1-1.11,2.77A5.57,5.57,0,0,1,169.1,20a14,14,0,0,1-4.5-.24,27.6,27.6,0,0,0-7.15-.84,12.74,12.74,0,0,0-9.77,6.58,19.11,19.11,0,0,0-2.48,12.41,22.35,22.35,0,0,0,6.58,13.8q5.78,5.61,13.12,4.74a18.52,18.52,0,0,0,1.89-.34,16.28,16.28,0,0,0,2.72-.93,7.14,7.14,0,0,0,2.24-1.35,5.89,5.89,0,0,1-.93-.86c-.18-.23-.42-.57-.71-1a5,5,0,0,1-.65-1.74q-.21-1.06-.42-2.76l-1.5-12.64a11.39,11.39,0,0,1-1.9.94,8.74,8.74,0,0,1-2,.44,6.63,6.63,0,0,1-3.19-.8,6.57,6.57,0,0,0-3.19-.79,3.24,3.24,0,0,0-1.55.6,1.32,1.32,0,0,0-.57,1.31q.21,1.76,1.71,1.41a3.05,3.05,0,0,0,.73-.31.85.85,0,0,0,.34-.34.25.25,0,0,1,.19-.16c.09,0,.14,0,.16.18a2.42,2.42,0,0,1,.24.8,3.64,3.64,0,0,1,0,.59,1.72,1.72,0,0,1-.57.94,2.31,2.31,0,0,1-3.35-.06,3.86,3.86,0,0,1-.93-2.15,2.34,2.34,0,0,1,0-.43,4.44,4.44,0,0,1,1.29-3.31,5.53,5.53,0,0,1,3.4-1.61,10.64,10.64,0,0,1,3.81.24,19.2,19.2,0,0,0,6.33.73,7.11,7.11,0,0,0,2.16-.63c.8-.4,1.59-.81,2.38-1.23.26,0,.35.08.27.32l-.73,1.09a5.53,5.53,0,0,0-.85,3.51l1.43,12a7.67,7.67,0,0,0,1.36,3.74,12.54,12.54,0,0,0,1.56,1.53.51.51,0,0,1,.18.3.45.45,0,0,1-.16.33,15.33,15.33,0,0,1-4.5,2.4A29.9,29.9,0,0,1,164,58.41a19,19,0,0,1-15.21-4.7,21.67,21.67,0,0,1-7.59-14.37,20.41,20.41,0,0,1,3.37-14.59,17.37,17.37,0,0,1,12.81-7.52,20.12,20.12,0,0,1,6.29.37,22.39,22.39,0,0,0,4.2.62c1.62-.2,2.36-.88,2.22-2a1.41,1.41,0,0,0-.57-1.05,1.59,1.59,0,0,0-1.07-.24A.77.77,0,0,0,168,15l-.33.14a.44.44,0,0,1-.28.09c-.07,0-.12-.06-.13-.16a1,1,0,0,1,.07-.41,2.51,2.51,0,0,1,1-1.36,3.52,3.52,0,0,1,1.59-.61,2.79,2.79,0,0,1,2.44.73A4,4,0,0,1,173.42,15.78Z"/><path d="M226.53,22.09q0,3.87-2.37,10.34-1.72,4.73-5.06,11.64-2.34,4.73-4.64,9.45a15,15,0,0,0-.84,2,11.88,11.88,0,0,1-.47,1.23.25.25,0,0,1-.23.17q-.13,0-.3-.21c-.1-.14-.53-1.06-1.29-2.75q-1.52-3.3-3.92-9.1c-1.6-3.87-2.88-7-3.83-9.45-.87,1.95-1.75,3.91-2.64,5.86-1.08,2.35-2.17,4.7-3.25,7q-1.91,4.19-2.64,5.89c-.06.15-.22.63-.49,1.43a4.35,4.35,0,0,1-.43,1,.27.27,0,0,1-.25.2c-.08,0-.14-.05-.2-.14a2.61,2.61,0,0,1-.2-.52c-.19-.55-.37-1-.54-1.42q-1.91-4.69-3.79-9.42-3.1-7.8-4.75-13.15-2.34-7.58-2.33-11.64a9.47,9.47,0,0,1,1.22-4.87,4.31,4.31,0,0,1,3.84-2.48,3.55,3.55,0,0,1,2.48.86,1.71,1.71,0,0,1,.71,1.53,2.09,2.09,0,0,1-.17.32c-.1.09-.21.08-.34,0a1.92,1.92,0,0,0-.67-.4,3.58,3.58,0,0,0-1.21-.17c-.82,0-1.44.5-1.88,1.51a7.26,7.26,0,0,0-.51,2.87,22.14,22.14,0,0,0,.6,4.87,50.63,50.63,0,0,0,1.45,5c.59,1.65,1.17,3.29,1.76,4.92.76,2.1,1.55,4.22,2.39,6.37q.91,2.3,2,5c.4,1,.8,2,1.22,3l7.3-16.2A52.81,52.81,0,0,1,200.34,27a21.13,21.13,0,0,1-.74-5.32,7.83,7.83,0,0,1,1.3-4.81,4.28,4.28,0,0,1,3.65-1.74,4.11,4.11,0,0,1,3.38,1.55,6.48,6.48,0,0,1,1.23,4.14,15.72,15.72,0,0,1-1,4.66,35.87,35.87,0,0,1-2.26,5.36l7.92,18.62c1.08-2,2.24-4.35,3.47-7.06a96.43,96.43,0,0,0,3.93-10A33.88,33.88,0,0,0,223,22.72a8.67,8.67,0,0,0-1-4.21A3.4,3.4,0,0,0,219,16.46a2.8,2.8,0,0,0-2,.6,2.77,2.77,0,0,0-.63,2.07c0,.27,0,.4-.17.4a.79.79,0,0,1-.28-.11,2.38,2.38,0,0,1-1.31-2.34,3.22,3.22,0,0,1,1.76-2.93,6.24,6.24,0,0,1,3.19-.82,6.06,6.06,0,0,1,5.1,2.59A10,10,0,0,1,226.53,22.09ZM207,21.18a5.55,5.55,0,0,0-.48-2.42,1.89,1.89,0,0,0-1.74-1.22,1.81,1.81,0,0,0-1.67,1,5,5,0,0,0-.55,2.39,13,13,0,0,0,.66,4,20,20,0,0,0,1.52,3.41c.64-1.37,1.13-2.53,1.47-3.5A11.56,11.56,0,0,0,207,21.18Z"/><path d="M267.49,52.75a.29.29,0,0,1,.07.17.4.4,0,0,1,0,.15q0,.3-.54.24a15.62,15.62,0,0,1-1.68-.26c-.93-.17-1.58-.28-1.94-.32-.6-.07-1.51-.13-2.74-.17a6.58,6.58,0,0,1-1-.09q-.48,0-.45-.39a.31.31,0,0,1,.11-.22c.07-.07.51-.35,1.33-.85.64-.38,1-.76,1-1.11s.14-.5.23-.88a12.28,12.28,0,0,0,.22-1.33,20,20,0,0,0-.26-6.22,22.38,22.38,0,0,0-3.75-8.54,20.74,20.74,0,0,0-4.08-4.29,26.67,26.67,0,0,0-5.37-3.27,36.3,36.3,0,0,0-3.46,5.94,27.22,27.22,0,0,0-2.46,8.28q-.49,4.3-.51,6.19a19,19,0,0,0,.83,6,7.56,7.56,0,0,0,1.89,3,12.47,12.47,0,0,0,1.9,1.48c.21.14.31.28.29.44s-.12.21-.31.25c-.57.1-1.11.22-1.63.35a18.09,18.09,0,0,0-1.82.57,12.09,12.09,0,0,0-1.79.8q-.52.28-1,.6a.66.66,0,0,1-.39.13c-.16,0-.23-.18-.2-.48.07-.59.12-1.26.15-2s0-2,0-3.64q-.16-3-.27-5.88a37.92,37.92,0,0,1,.19-5.42,40.41,40.41,0,0,1,2.5-10.06,31.58,31.58,0,0,1,3.9-7.31c-.4-.13-.83-.24-1.29-.35a13.19,13.19,0,0,0-1.58-.27,16.09,16.09,0,0,0-3.4,0,8.61,8.61,0,0,0-3.18.91,3.31,3.31,0,0,0-2,2.52c-.12,1.07.24,1.74,1.09,2a1.4,1.4,0,0,0,.33.07,1.9,1.9,0,0,0,1.07-.17,1.1,1.1,0,0,0,.6-.79c.09-.37.21-.55.37-.53s.19.13.23.34a3.06,3.06,0,0,1,0,.81,2.94,2.94,0,0,1-.12.54q-.09.3-.18.57a3.86,3.86,0,0,1-1.45,1.6,3.43,3.43,0,0,1-2.25.44,1.66,1.66,0,0,1-.32,0,3.29,3.29,0,0,1-2.4-1.41,4,4,0,0,1-.7-3c.22-1.94,1.46-3.44,3.72-4.48a14.2,14.2,0,0,1,4.9-1.24,16.88,16.88,0,0,1,2,0c.75,0,1.5.08,2.28.17a18.06,18.06,0,0,1,3.55.69,32.65,32.65,0,0,1,10-7.36,24.22,24.22,0,0,1,12.88-2c.63.07.93.19.91.36s-.09.18-.24.29A5.49,5.49,0,0,0,270,16a18.32,18.32,0,0,0-.84,4.29l-3.45,30.06c0,.36.21.78.73,1.28A15.06,15.06,0,0,1,267.49,52.75Zm-4.38-15,2.55-22.34a21.06,21.06,0,0,0-8.49,2.64,24.75,24.75,0,0,0-3.9,2.5,26.5,26.5,0,0,0-3.3,3.32,27.44,27.44,0,0,1,4.22,2.43,27,27,0,0,1,3.36,2.91,23.78,23.78,0,0,1,3.17,3.88A32.65,32.65,0,0,1,263.11,37.79Z"/><path d="M312.65,65.92A2.16,2.16,0,0,1,311,67.61a5.42,5.42,0,0,1-2.74.16,11.9,11.9,0,0,1-6-2.85,14.42,14.42,0,0,1-3.62-5.27,15.46,15.46,0,0,1-1-4.18c0-.49-.13-1.94-.24-4.34A25.66,25.66,0,0,0,297,47c-.61.06-1.22.1-1.83.1a11.2,11.2,0,0,1-1.76-.14,6.48,6.48,0,0,1-2.95-1.15,2.38,2.38,0,0,1-1-2.42,2.34,2.34,0,0,1,1.7-1.82,5.79,5.79,0,0,1,2.87-.17,7.23,7.23,0,0,1,2.77,1.1,5.29,5.29,0,0,1,1.93,2.19,12.34,12.34,0,0,0,5.46-3.59,12.9,12.9,0,0,0,3.33-6.62,12.38,12.38,0,0,0-2.17-9.73,13.27,13.27,0,0,0-8.94-5.29,33.82,33.82,0,0,0-4.82-.57,17.26,17.26,0,0,0-5.33.78,12.24,12.24,0,0,0-3.46,1.69,4.61,4.61,0,0,0-2.1,2.79c-.06.22-.09.37-.11.44a2.66,2.66,0,0,0,.12,1.44,1.11,1.11,0,0,0,.92.76,1.32,1.32,0,0,0,1-.15,2.28,2.28,0,0,0,.73-1.06c.09-.21.2-.31.31-.29s.18.11.21.27a2.33,2.33,0,0,1,.19,1.59,2.53,2.53,0,0,1-1.17,1.76,2.86,2.86,0,0,1-2.15.44,2.75,2.75,0,0,1-2.05-1.45,4,4,0,0,1-.41-2.72,7,7,0,0,1,2.55-4.25,13.82,13.82,0,0,1,4.31-2.37A22.32,22.32,0,0,1,292,17.22a34.06,34.06,0,0,1,6.6.59,17.55,17.55,0,0,1,10.6,5.69A12.17,12.17,0,0,1,312.29,34a14.48,14.48,0,0,1-4.67,8.39,17,17,0,0,1-7.93,4.18A19.18,19.18,0,0,1,301.07,50c.39,1.3.75,2.79,1.08,4.46.5,2.53.88,4.23,1.11,5.07a16.76,16.76,0,0,0,1.9,4.6,4.81,4.81,0,0,0,3.23,2.38,3,3,0,0,0,1.37-.08,1.23,1.23,0,0,0,.86-.81,3.13,3.13,0,0,0,.05-.75,1.19,1.19,0,0,0-.17-.5.62.62,0,0,1-.13-.35c0-.09.1-.15.26-.19a2.24,2.24,0,0,1,1.4.62A1.48,1.48,0,0,1,312.65,65.92Zm-25.31-9.25a.4.4,0,0,1,.06.21.38.38,0,0,1,0,.15c0,.22-.22.3-.56.24a13.73,13.73,0,0,1-1.66-.36,9.13,9.13,0,0,1-1.89-.6c-.6-.1-1.51-.21-2.72-.32a6.34,6.34,0,0,1-1-.14q-.47-.08-.42-.42a.33.33,0,0,1,.13-.21c.07-.06.52-.32,1.37-.77.66-.35,1-.7,1.08-1.06l4.49-26.14A1.53,1.53,0,0,0,286,25.9a7.61,7.61,0,0,0-.83-.58c-.17-.1-.25-.21-.23-.33s.15-.22.41-.39l1.61-.56c.35-.11.86-.31,1.55-.6s1.64-.76,2.85-1.41a12,12,0,0,1,1.08-.54q.3,0,.39.12a.41.41,0,0,1-.07.4,22.94,22.94,0,0,0-1.49,2,4.87,4.87,0,0,0-.69,1.74L285.68,54.1c-.06.35.16.79.65,1.32A15.82,15.82,0,0,1,287.34,56.67Zm9.24-11.42a2.81,2.81,0,0,0-1-1.59,3.76,3.76,0,0,0-1.84-.86,2.92,2.92,0,0,0-1.45.09,1.07,1.07,0,0,0-.78.85,1.15,1.15,0,0,0,.65,1.24,4.78,4.78,0,0,0,1.63.54,6.19,6.19,0,0,0,1.45,0A4.06,4.06,0,0,0,296.58,45.25Z"/><path d="M353.77,56.11a18.53,18.53,0,0,1-8.21,10.3A26.09,26.09,0,0,1,333,69.91a35.28,35.28,0,0,1-12.93-1.82L319.7,68,319,67.7c-.28-.1-.39-.24-.33-.4s.2-.23.51-.36a8.54,8.54,0,0,0,3.57-2.7,17.44,17.44,0,0,0,2.67-5.34l2.21-6.57a12.05,12.05,0,0,1-6.06-5.44q-1.9-3.82-.19-8.93t7.86-7a19.2,19.2,0,0,1,11.88.33,19.91,19.91,0,0,1,11.68,9.35Q356.62,47.64,353.77,56.11Zm-3.37-2.68A16.18,16.18,0,0,0,350,41.16a15.05,15.05,0,0,0-9.41-8.26,17,17,0,0,0-10.28-.42,9.56,9.56,0,0,0-6.95,6.28,9.41,9.41,0,0,0,.08,7.29,10.82,10.82,0,0,0,4.77,4.55l3.36-10a1.36,1.36,0,0,0-.25-1.5c-.19-.14-.37-.28-.52-.41a.41.41,0,0,1-.15-.47.38.38,0,0,1,.29-.24c.15,0,.59-.06,1.3-.1s1.46-.11,2.23-.21c.59-.08,1.47-.24,2.65-.46.38-.07.69-.12.92-.14s.44.11.35.38a.45.45,0,0,1-.14.23,13.3,13.3,0,0,0-1.52,1.23,2.83,2.83,0,0,0-.77,1.12L332,51.65a6.71,6.71,0,0,0,4.38-.42c2-.75,3.23-1.83,3.7-3.23a2.93,2.93,0,0,0,.13-1.55,1.09,1.09,0,0,0-.7-.86,3,3,0,0,0-1-.2.76.76,0,0,0-.52.17c-.19.2-.33.28-.44.25s-.13-.14-.13-.32a1.67,1.67,0,0,1,.1-.39,1.4,1.4,0,0,1,.24-.45,2.63,2.63,0,0,1,3.21-1A2.86,2.86,0,0,1,343,45.59a4.74,4.74,0,0,1-.17,2.83q-.9,2.67-4.45,4.18a11.52,11.52,0,0,1-6.91.83l-2.1,6.25A14.58,14.58,0,0,1,327,64a12.27,12.27,0,0,1-3.18,3,21,21,0,0,0,19.75-3.57A21.24,21.24,0,0,0,350.4,53.43Z"/><path d="M380.65,76.73a12.15,12.15,0,0,1-8.58,7.08,17.56,17.56,0,0,1-11.77-1.09,17,17,0,0,1-8-6.62,10,10,0,0,1-.67-9.74,8.43,8.43,0,0,1,5.53-4.77,11.07,11.07,0,0,1,8,.52,13.19,13.19,0,0,1,5.73,4.31,5.85,5.85,0,0,1,.63,6,5.11,5.11,0,0,1-3.49,3,7.15,7.15,0,0,1-4.92-.37,8.28,8.28,0,0,1-3.36-2.47,3.38,3.38,0,0,1-.57-3.61,2.47,2.47,0,0,1,1.72-1.42,2.87,2.87,0,0,1,1.53-.1l.64.18c.14.06.18.15.14.25l-.24.27a1.39,1.39,0,0,0-.25.27,4.86,4.86,0,0,0-.66,1.07,1.89,1.89,0,0,0,.21,1.76,3.37,3.37,0,0,0,1.53,1.37,4.2,4.2,0,0,0,3.12.19,3.48,3.48,0,0,0,2.14-2,4.1,4.1,0,0,0-.66-4.36A10.62,10.62,0,0,0,357.7,62.8a7.05,7.05,0,0,0-4.87,4.08q-1.79,4.07,1,8.22a16.5,16.5,0,0,0,7.31,5.82,13.48,13.48,0,0,0,9.69.65,10.79,10.79,0,0,0,7-6.18,8.91,8.91,0,0,0,.75-5,12.89,12.89,0,0,0-1.8-4.61,42.16,42.16,0,0,0-3.36-4.61q-3-3.52-6.07-7.05-2.89-4-1.54-7A5.7,5.7,0,0,1,371,43.73a17.48,17.48,0,0,1,11.57,4.11q2,1.92,1.07,4a2.25,2.25,0,0,1-1.32,1.2,2.38,2.38,0,0,1-1.49.21c-.35-.12-.61-.21-.76-.28a2.67,2.67,0,0,1-.89-.6,1,1,0,0,1-.17-.39.52.52,0,0,1,.32-.23,2.53,2.53,0,0,0,.86-.54,2.76,2.76,0,0,0,.53-.78,2.27,2.27,0,0,0-.56-2.55,7.49,7.49,0,0,0-2.59-1.76A11.65,11.65,0,0,0,372.67,45a3.56,3.56,0,0,0-3.53,2,3.66,3.66,0,0,0,.44,3.33,23.72,23.72,0,0,0,3,3.77c2.24,2.41,3.53,3.83,3.89,4.26a34.22,34.22,0,0,1,3.95,5.43,13.31,13.31,0,0,1,1.76,5.84A15.92,15.92,0,0,1,380.65,76.73Z"/></svg>