<svg id="Layer_1" data-name="Layer 1" xmlns="http://www.w3.org/2000/svg" viewBox="0 0 430 493.8"><defs><style>.cls-1{fill:#ff8b00;}.cls-1,.cls-3,.cls-6,.cls-7{stroke:#000;stroke-miterlimit:10;}.cls-1,.cls-3{stroke-width:4px;}.cls-2{fill:#b11c12;}.cls-3,.cls-6{fill:none;}.cls-4{opacity:0.4;}.cls-5{fill:#ffc;}.cls-6,.cls-7{stroke-width:6px;}</style></defs><path class="cls-1" d="M62.33,2.6A98.63,98.63,0,0,0,72,9.24c2.3,1.37,5.89,3.4,19.91,9.19s17.38,6.63,20.94,7.15a55.55,55.55,0,0,0,10.21.51l52.59.05a19.48,19.48,0,0,1,9.71,0c5.13,1.39,7.86,4.67,12.25,9.14,9.61,9.77,14.42,14.66,18.17,14.71,3.34,0,4.88-2,19.27-15.52,3.81-3.57,6.95-6.47,9-8.38l27.57.2a184.69,184.69,0,0,0,27.58,0,150.8,150.8,0,0,0,30.13-4.8A131,131,0,0,0,368.72,3.11L416.21,46c5.28,5,8.68,8.17,8.68,8.17S413.65,78.25,408,92.47c-9.3,23.55-12.18,42.95-14.3,57.19a303.91,303.91,0,0,0-2.05,72.51c1.76,19,4.71,48.25,19.92,82.21,5.81,13,11.38,23.52,16.34,30.13,1.53,2-30.13,53.62-30.13,53.62-.94,2.83-2.69,6.38-6.13,8.17s-6.27.7-10.72,1c-5,.36-8.24,2.22-14.3,5.62-8.6,4.82-9.92,7.68-19.4,14.81-3.66,2.75-3.12,2.06-19.92,12.76s-16.06,10.59-19.91,12.77c-12.86,7.29-15.52,5.59-30.64,12.25-9.7,4.28-25.86,11.4-42.42,25-8.3,6.81-12.13,11.49-18.86,11.28s-10.05-5.33-19.4-12.77c-4.54-3.61-13.24-8.19-30.64-17.36-3.79-2-16.65-8.72-34.21-16.85-16.67-7.71-18.61-7.92-27.06-12.77S88.8,423.2,80.72,416.21c-5.4-4.66-11.14-8.91-16.34-13.78-3.29-3.08-5.26-5.13-8.69-6.13-5.94-1.74-11.83,1-15.31,3.06L6.16,343.19A14.76,14.76,0,0,1,2.08,335c-1-8.15,7-13.53,13.79-24,3.17-4.9,5.17-10.93,9.19-23,9.3-27.91,12.24-55.65,12.76-60.76a313.47,313.47,0,0,0-2.55-82.73A305.7,305.7,0,0,0,4.63,53.66Z"/><path class="cls-2" d="M220.26,418.13s0,.24,0,.24c.66,0,0-168.66,0-168.66l136.32.54,22.42.55h0c.58,0,1,0,1.36,0,.16,0,.69.19.69.19l2.25,3.52.48,2.34s.69,3.23,1,4.55c.38,1.76,1,4.3,1.78,7.49q1.44,5.16,2.86,10.32a149.87,149.87,0,0,0,8.18,23.22c4.09,9.12,6.13,13.68,9.47,17.2,2.71,2.86,4.86,4.16,5.54,7.09,1.12,4.84-2.74,9.89-6.31,13.51l-19.55,34.68a63.31,63.31,0,0,1-9,12,2.8,2.8,0,0,0-4.13,1.47,1.63,1.63,0,0,0-.21-.78c-1-1.87-5.72-1.07-7.26-.81-8.15,1.37-28.25,19.62-38.9,27.46-5.35,3.93-19.66,10.74-48.28,24.34-4.8,2.29-8.8,4.16-11.57,5.44A163.63,163.63,0,0,1,251,453c-4.13,1.95-8.11,3.61-11.88,5L220.26,474.4C220.05,431.8,220.1,418.13,220.26,418.13Z"/><path class="cls-2" d="M208.87,416.77s0,.24,0,.24c-.65,0,0-166.36,0-166.36l-135.32.54-22.26.55h0c-.58,0-1,0-1.35,0-.16,0-.69.19-.69.19L47,255.42l-.47,2.31s-.69,3.19-1,4.48c-.38,1.74-1,4.24-1.77,7.39q-1.42,5.1-2.83,10.18c-1.19,11.34-4.87,18.45-8.12,22.9-1.21,1.66-5.57,7.35-11,15.57-2.4,3.61-3.61,5.6-3.86,8.39-.56,6.21,4.12,11.27,6.26,13.33q9.7,17.1,19.4,34.21c1.6,2.37,3.21,4.75,4.86,7.15s3.33,4.83,5,7.2c.67-.25,1.77-.66,3.17-1.07a51.56,51.56,0,0,1,7.41-1.57c6.08-.77,26.61,18.3,38.62,27.08,5.31,3.88,19.51,10.59,47.92,24,4.77,2.25,8.75,4.09,11.49,5.36a161.66,161.66,0,0,0,16.29,8.81c4.1,1.92,8,3.57,11.8,5l18.7,16.13C209.08,430.25,209,416.77,208.87,416.77Z"/><path class="cls-2" d="M220.62,68.22c20.07,19.24,14.76,54.47,13,67-6.87,48.94-4.27,98.8-9,148-3.73,38.77-3.08,95.17,19,167-5.73,10.8-14.6,23.56-26,24-18.73.71-33.79-32.26-39-43-17.48-36-53.54-88.67-135-162l7.67-31.33h0c-1.16,0-1.77,0-2-.2-.5-.38.14-1.47.5-4.37.1-.84.34-3.36.26-2.52.44-4.56.45-4.65.45-4.65.82-8.41,2.55-11.63,2.55-21.32h0c-.12-5.08-.52-16.3-2-30.27-2-18.33-4.06-32.28-8.88-50.42A284.54,284.54,0,0,0,20.53,68L72.4,17.12c.93.74,2.26,1.77,3.89,3h0A119.72,119.72,0,0,0,92.85,30.16a220.53,220.53,0,0,0,27.8,11.14c10.47.59,21.4,1,32.77,1.07,12,.11,23.45-.1,34.42-.55l21,18.5A42,42,0,0,1,220.62,68.22Z"/><path class="cls-2" d="M220.62,62.22a39.62,39.62,0,0,0-5,3c-45.76,32.12-13.42,150.84-1,192l168,13a102.64,102.64,0,0,1-2-19s0-8.83-.63-13.67c0-.34-.22-2.07-.52-4.37-.1-.84-.35-3.36-.27-2.52l-.46-4.65c-.86-8.41-2.65-11.62-2.65-21.32h0c.13-5.08.54-16.29,2.1-30.27,2.05-18.33,4.2-32.28,9.2-50.42a278.74,278.74,0,0,1,22.35-56.14L356,17c-1,.73-2.34,1.76-4,3A139.86,139.86,0,0,1,334.82,30c-15.41,7.42-39.31,10.51-39.31,10.51a217,217,0,0,1-54.11.09Z"/><path class="cls-3" d="M73.81,20a91.07,91.07,0,0,0,9,6.17c2.13,1.28,5.46,3.16,18.45,8.53s16.11,6.17,19.4,6.65a52.16,52.16,0,0,0,9.46.47l48.74,0a18,18,0,0,1,9,0c4.75,1.29,7.28,4.34,11.35,8.49C208.1,59.39,212.55,63.93,216,64c3.09,0,4.52-1.88,17.85-14.42,3.53-3.31,6.44-6,8.37-7.78L267.8,42a171.08,171.08,0,0,0,25.55,0,139.36,139.36,0,0,0,27.91-4.46A121.19,121.19,0,0,0,357.7,20.42l44,39.85,8,7.59s-10.41,22.37-15.61,35.58c-8.61,21.88-11.29,39.89-13.25,53.13A283.12,283.12,0,0,0,379,223.93c1.63,17.67,4.36,44.82,18.45,76.37,5.38,12.05,10.55,21.85,15.14,28,1.42,1.9-27.91,49.81-27.91,49.81-.88,2.63-2.5,5.92-5.68,7.59s-5.82.64-9.94.95c-4.6.33-7.63,2.06-13.25,5.21-8,4.48-9.19,7.14-18,13.76-3.39,2.56-2.89,1.92-18.45,11.86s-14.89,9.83-18.45,11.86c-11.91,6.77-14.38,5.19-28.39,11.38-9,4-24,10.59-39.3,23.21-7.7,6.32-11.25,10.67-17.48,10.47s-9.31-4.95-18-11.86c-4.2-3.35-12.26-7.61-28.38-16.12-3.52-1.86-15.43-8.11-31.7-15.66-15.45-7.16-17.25-7.35-25.08-11.86s-14.27-8.21-21.77-14.7c-5-4.33-10.31-8.29-15.14-12.81-3-2.86-4.87-4.76-8-5.69-5.51-1.62-11,.91-14.19,2.84l-31.7-52.18A13.67,13.67,0,0,1,18,328.76c-.88-7.57,6.51-12.57,12.77-22.29,2.94-4.56,4.8-10.16,8.52-21.35,8.62-25.93,11.35-51.7,11.83-56.45a291.74,291.74,0,0,0-2.37-76.85A284.43,284.43,0,0,0,20.35,67.39Z"/><g class="cls-4"><path class="cls-5" d="M331.47,93.46q0,11.85-10.57,19.46t-25,7.61a105.37,105.37,0,0,1-33-5.71q-37.86-12.46-52-12.47-46.95,0-77.83,39.94-29.19,37.62-29.19,89.4,0,62.55,36.38,107.57,37.65,46.49,92.63,46.49,5.72,0,14.28-.84A118.6,118.6,0,0,0,268,380.47q12.27-3.59,17.77-8a40.92,40.92,0,0,1-6.13-7.18q-1.7-2.75-4.34-8.13A37.06,37.06,0,0,1,272,343.72q-.63-8-.63-20.7V228.4a82.29,82.29,0,0,1-14.81,5.28,67.63,67.63,0,0,1-15.23,1.49q-8.46,0-22.84-8.68t-22.84-8.67a23.81,23.81,0,0,0-11.95,3.07,9.94,9.94,0,0,0-5.39,9.2q0,13.11,11.42,11.84a22.77,22.77,0,0,0,5.6-1.58,7,7,0,0,0,2.86-2.22,1.78,1.78,0,0,1,1.48-1.06c.7,0,1.06.49,1.06,1.48a17.07,17.07,0,0,1,1.06,6.13,29,29,0,0,1-.43,4.34q-.42,2.64-5.07,6.45A16,16,0,0,1,186,259.28q-9.3,0-14.27-7.2a28.59,28.59,0,0,1-5-16.7,17.78,17.78,0,0,1,.21-3.18,33,33,0,0,1,12.48-23.26q11-8.88,26.43-8.88a79,79,0,0,1,27.92,5.07q29.4,11,46.11,11a54.68,54.68,0,0,0,16.49-2.75q9.31-3.37,18.62-7,3,0,1.69,2.54-3.18,3.81-6.35,7.4Q301,228.4,301,241.51v89.67q0,16.94,6.76,28.77,2.33,4,10.16,12.69A3.78,3.78,0,0,1,319,375a3.39,3.39,0,0,1-1.48,2.33q-8.67,6.56-35.32,13.75-31.72,8.67-57.73,8.67-63.89,0-108.08-48Q73,304.54,73,239q0-62.39,37.65-104.69,39.35-44.2,101.1-44.2,20.72,0,46.1,8.25t30.46,8.25q18.18,0,18.19-13.12c0-3.66-1.1-6.41-3.28-8.25a11.66,11.66,0,0,0-7.72-2.74,6.11,6.11,0,0,0-3.39.1c-1.13.35-2,.6-2.53.74a3.14,3.14,0,0,1-2.12.42,1.13,1.13,0,0,1-.85-1.26,6.91,6.91,0,0,1,.85-3,18.92,18.92,0,0,1,8.46-9.2,25.6,25.6,0,0,1,12.27-3.06q11.42,0,17.34,7.51T331.47,93.46Z"/></g><path class="cls-6" d="M119.61,81.34h164a99.45,99.45,0,0,1,0,25.1c-1.2,9.39-2.7,10.29-3.92,19.61-2.09,15.86,1.58,18.23-.79,30.59-1.38,7.21-3.49,18.19-11.77,23.54-6,3.89-13.38,3.57-27.45,0-19.2-4.89-31.89-11-48.63-18.83-36.85-17.18-41.73-18.38-51-26.67A102.4,102.4,0,0,1,118.83,108Z"/><path class="cls-6" d="M118.83,108a34.66,34.66,0,0,0,22.75-3.92c12.9-7.37,16-20.58,16.47-22.75"/><path class="cls-6" d="M256.1,81.34a20.42,20.42,0,0,0,27.46,25.1"/><circle class="cls-6" cx="257.38" cy="136.64" r="20.79"/><path class="cls-7" d="M189.43,94.92c1-1.83,4.08-.67,14.95-.74s13.11-.85,14.07.74c2.11,3.5-5,14.66-13.17,14.85-3,.06-5.33-1.37-7.22-2.54C192.84,104,187.85,97.68,189.43,94.92Z"/><path class="cls-6" d="M121,114.48c-1.1,4.43-2.87,11.58-5.1,20.4-3.57,14.13-6.26,24.43-9.81,38.83-3.89,15.77-5.84,23.72-5.88,26.27-.22,12.17,5.36,21.69,14.12,38.05.37.69,6.1,10.28,9.56,16.06l2.6,4.33c10.29,16.91,13.72,52.17,13.72,52.17,1.12,9.6,4.23,38.08-3.53,62.75-2.64,8.41-4.59,14.63-10.19,20.79-6.42,7.06-12.92,8.86-12.55,12.94.45,5.09,11.08,7.92,13.72,8.63,3.72,1,12.89,2.84,25.1-1.18C158,412.81,163.36,410.16,176,400c11.26-9.09,15.35-13.72,29.41-26.67,13.7-12.62,20.55-18.93,26.28-22.36a87.7,87.7,0,0,1,30.07-11.35c1.26-.21,3.28-.56,6-.8,9.11-.83,22.25-2.29,31.38,4.7,9.76,7.48,14.31,21.65,11,34.52-4.68,18.08-22.41,24-23.53,24.31l-50.2.4c-6,.58-13,.51-14.58-2.82-2.52-5.2,9.07-16,16.93-21.5a62.11,62.11,0,0,1,71.38-.39"/><path class="cls-6" d="M265.82,339l49.75-90,45.5-54.27q.71-37.75,1.43-75.52a4.22,4.22,0,0,0-1.43-2.81c-3.36-2.48-12.05,3.12-17.26,9-8,9-9.36,20.4-10.2,27.34a72.29,72.29,0,0,0,0,17.14l-51.38,35.9a7.11,7.11,0,0,1-4.31,3.26c-4,.82-7.79-4.88-8.91-6.4-3.87-5.27-12.25-12.74-32.24-22.17"/><path class="cls-6" d="M138.65,135.49a52.75,52.75,0,0,0,.1,18,52,52,0,0,0,8.14,20c6.18,8.86,12.33,10.78,22.7,17.82A152.2,152.2,0,0,1,200,220a113.72,113.72,0,0,1,18.84,36.51"/><path class="cls-6" d="M123.93,254.09H198.3c35.92,1.44,61.27.86,78.05,0,18.67-.94,37.48,1.78,56.09,0,4.48-.43,9.85-1.09,16.08,1.19,14.46,5.32,21.53,21.78,25.1,33.74h-40c-3.1.59-7.4.89-10.19-1.57-3.59-3.16-1.66-8.18-4.11-11.42-5.17-6.82-25.27.25-26.88.83-44.33,16-96.65,42.31-100,37.65-1.17-1.63,5-5.09,6.27-13.73,1.45-9.7-4.41-18.15-10.59-27.06a94.23,94.23,0,0,0-18.31-19.63"/></svg>