<svg id="Layer_1" data-name="Layer 1" xmlns="http://www.w3.org/2000/svg" viewBox="0 0 430 493.8"><defs><style>.cls-1{fill:#ff8b00;}.cls-1,.cls-3,.cls-6,.cls-7{stroke:#000;stroke-miterlimit:10;}.cls-1,.cls-3{stroke-width:4px;}.cls-2{fill:#f7cd33;}.cls-3,.cls-6{fill:none;}.cls-4{opacity:0.58;}.cls-5{fill:#ffc;}.cls-6,.cls-7{stroke-width:6px;}</style></defs><path class="cls-1" d="M62.33,2.6A98.63,98.63,0,0,0,72,9.24c2.3,1.37,5.89,3.4,19.91,9.19s17.38,6.63,20.94,7.15a55.55,55.55,0,0,0,10.21.51l52.59.05a19.48,19.48,0,0,1,9.71,0c5.13,1.39,7.86,4.67,12.25,9.14,9.61,9.77,14.42,14.66,18.17,14.71,3.34,0,4.88-2,19.27-15.52,3.81-3.57,6.95-6.47,9-8.38l27.57.2a184.69,184.69,0,0,0,27.58,0,150.8,150.8,0,0,0,30.13-4.8A131,131,0,0,0,368.72,3.11L416.21,46c5.28,5,8.68,8.17,8.68,8.17S413.65,78.25,408,92.47c-9.3,23.55-12.18,42.95-14.3,57.19a303.91,303.91,0,0,0-2.05,72.51c1.76,19,4.71,48.25,19.92,82.21,5.81,13,11.38,23.52,16.34,30.13,1.53,2-30.13,53.62-30.13,53.62-.94,2.83-2.69,6.38-6.13,8.17s-6.27.7-10.72,1c-5,.36-8.24,2.22-14.3,5.62-8.6,4.82-9.92,7.68-19.4,14.81-3.66,2.75-3.12,2.06-19.92,12.76s-16.06,10.59-19.91,12.77c-12.86,7.29-15.52,5.59-30.64,12.25-9.7,4.28-25.86,11.4-42.42,25-8.3,6.81-12.13,11.49-18.86,11.28s-10.05-5.33-19.4-12.77c-4.54-3.61-13.24-8.19-30.64-17.36-3.79-2-16.65-8.72-34.21-16.85-16.67-7.71-18.61-7.92-27.06-12.77S88.8,423.2,80.72,416.21c-5.4-4.66-11.14-8.91-16.34-13.78-3.29-3.08-5.26-5.13-8.69-6.13-5.94-1.74-11.83,1-15.31,3.06L6.16,343.19A14.76,14.76,0,0,1,2.08,335c-1-8.15,7-13.53,13.79-24,3.17-4.9,5.17-10.93,9.19-23,9.3-27.91,12.24-55.65,12.76-60.76a313.47,313.47,0,0,0-2.55-82.73A305.7,305.7,0,0,0,4.63,53.66Z"/><path class="cls-2" d="M220.26,418.13s0,.24,0,.24c.66,0,0-168.66,0-168.66l136.32.54,22.42.55h0c.58,0,1,0,1.36,0,.16,0,.69.19.69.19l2.25,3.52.48,2.34s.69,3.23,1,4.55c.38,1.76,1,4.3,1.78,7.49q1.44,5.16,2.86,10.32a149.87,149.87,0,0,0,8.18,23.22c4.09,9.12,6.13,13.68,9.47,17.2,2.71,2.86,4.86,4.16,5.54,7.09,1.12,4.84-2.74,9.89-6.31,13.51l-19.55,34.68a63.31,63.31,0,0,1-9,12,2.8,2.8,0,0,0-4.13,1.47,1.63,1.63,0,0,0-.21-.78c-1-1.87-5.72-1.07-7.26-.81-8.15,1.37-28.25,19.62-38.9,27.46-5.35,3.93-19.66,10.74-48.28,24.34-4.8,2.29-8.8,4.16-11.57,5.44A163.63,163.63,0,0,1,251,453c-4.13,1.95-8.11,3.61-11.88,5L220.26,474.4C220.05,431.8,220.1,418.13,220.26,418.13Z"/><path class="cls-2" d="M208.87,416.77s0,.24,0,.24c-.65,0,0-166.36,0-166.36l-135.32.54-22.26.55h0c-.58,0-1,0-1.35,0-.16,0-.69.19-.69.19L47,255.42l-.47,2.31s-.69,3.19-1,4.48c-.38,1.74-1,4.24-1.77,7.39q-1.42,5.1-2.83,10.18c-1.19,11.34-4.87,18.45-8.12,22.9-1.21,1.66-5.57,7.35-11,15.57-2.4,3.61-3.61,5.6-3.86,8.39-.56,6.21,4.12,11.27,6.26,13.33q9.7,17.1,19.4,34.21c1.6,2.37,3.21,4.75,4.86,7.15s3.33,4.83,5,7.2c.67-.25,1.77-.66,3.17-1.07a51.56,51.56,0,0,1,7.41-1.57c6.08-.77,26.61,18.3,38.62,27.08,5.31,3.88,19.51,10.59,47.92,24,4.77,2.25,8.75,4.09,11.49,5.36a161.66,161.66,0,0,0,16.29,8.81c4.1,1.92,8,3.57,11.8,5l18.7,16.13C209.08,430.25,209,416.77,208.87,416.77Z"/><path class="cls-2" d="M220.62,68.22c20.07,19.24,14.76,54.47,13,67-6.87,48.94-4.27,98.8-9,148-3.73,38.77-3.08,95.17,19,167-5.73,10.8-14.6,23.56-26,24-18.73.71-33.79-32.26-39-43-17.48-36-53.54-88.67-135-162l7.67-31.33h0c-1.16,0-1.77,0-2-.2-.5-.38.14-1.47.5-4.37.1-.84.34-3.36.26-2.52.44-4.56.45-4.65.45-4.65.82-8.41,2.55-11.63,2.55-21.32h0c-.12-5.08-.52-16.3-2-30.27-2-18.33-4.06-32.28-8.88-50.42A284.54,284.54,0,0,0,20.53,68L72.4,17.12c.93.74,2.26,1.77,3.89,3h0A119.72,119.72,0,0,0,92.85,30.16a220.53,220.53,0,0,0,27.8,11.14c10.47.59,21.4,1,32.77,1.07,12,.11,23.45-.1,34.42-.55l21,18.5A42,42,0,0,1,220.62,68.22Z"/><path class="cls-2" d="M220.62,62.22a39.62,39.62,0,0,0-5,3c-45.76,32.12-13.42,150.84-1,192l168,13a102.64,102.64,0,0,1-2-19s0-8.83-.63-13.67c0-.34-.22-2.07-.52-4.37-.1-.84-.35-3.36-.27-2.52l-.46-4.65c-.86-8.41-2.65-11.62-2.65-21.32h0c.13-5.08.54-16.29,2.1-30.27,2.05-18.33,4.2-32.28,9.2-50.42a278.74,278.74,0,0,1,22.35-56.14L356,17c-1,.73-2.34,1.76-4,3A139.86,139.86,0,0,1,334.82,30c-15.41,7.42-39.31,10.51-39.31,10.51a217,217,0,0,1-54.11.09Z"/><path class="cls-3" d="M73.81,20a91.07,91.07,0,0,0,9,6.17c2.13,1.28,5.46,3.16,18.45,8.53s16.11,6.17,19.4,6.65a52.16,52.16,0,0,0,9.46.47l48.74,0a18,18,0,0,1,9,0c4.75,1.29,7.28,4.34,11.35,8.49C208.1,59.39,212.55,63.93,216,64c3.09,0,4.52-1.88,17.85-14.42,3.53-3.31,6.44-6,8.37-7.78L267.8,42a171.08,171.08,0,0,0,25.55,0,139.36,139.36,0,0,0,27.91-4.46A121.19,121.19,0,0,0,357.7,20.42l44,39.85,8,7.59s-10.41,22.37-15.61,35.58c-8.61,21.88-11.29,39.89-13.25,53.13A283.12,283.12,0,0,0,379,223.93c1.63,17.67,4.36,44.82,18.45,76.37,5.38,12.05,10.55,21.85,15.14,28,1.42,1.9-27.91,49.81-27.91,49.81-.88,2.63-2.5,5.92-5.68,7.59s-5.82.64-9.94.95c-4.6.33-7.63,2.06-13.25,5.21-8,4.48-9.19,7.14-18,13.76-3.39,2.56-2.89,1.92-18.45,11.86s-14.89,9.83-18.45,11.86c-11.91,6.77-14.38,5.19-28.39,11.38-9,4-24,10.59-39.3,23.21-7.7,6.32-11.25,10.67-17.48,10.47s-9.31-4.95-18-11.86c-4.2-3.35-12.26-7.61-28.38-16.12-3.52-1.86-15.43-8.11-31.7-15.66-15.45-7.16-17.25-7.35-25.08-11.86s-14.27-8.21-21.77-14.7c-5-4.33-10.31-8.29-15.14-12.81-3-2.86-4.87-4.76-8-5.69-5.51-1.62-11,.91-14.19,2.84l-31.7-52.18A13.67,13.67,0,0,1,18,328.76c-.88-7.57,6.51-12.57,12.77-22.29,2.94-4.56,4.8-10.16,8.52-21.35,8.62-25.93,11.35-51.7,11.83-56.45a291.74,291.74,0,0,0-2.37-76.85A284.43,284.43,0,0,0,20.35,67.39Z"/><g class="cls-4"><path class="cls-5" d="M346.85,382.82a2.76,2.76,0,0,1,.65,1.27,3.51,3.51,0,0,1,.21,1.06q0,2.31-3.86,2.31a116.88,116.88,0,0,1-12.78-.53q-10.62-.75-14.71-.75-6.87,0-20.61,1.07a44.61,44.61,0,0,1-7.3.21c-2.44,0-3.65-.85-3.65-2.57a2.32,2.32,0,0,1,.64-1.72q.65-.85,9.24-7.51,6.65-5.16,6.65-9.24V179.19a113.08,113.08,0,0,1-27.59,7.51,204.51,204.51,0,0,1-30.81,2.37q-17.19,0-39.94-4.94a201.93,201.93,0,0,1-39.94-12.67V366.63q0,4.08,6.53,9,8.7,6.54,9.14,7.16a2.76,2.76,0,0,1,.65,1.27,3.57,3.57,0,0,1,.22,1.06c0,1.54-1.3,2.31-3.88,2.31a117.63,117.63,0,0,1-12.82-.53q-10.66-.75-14.76-.75-6.9,0-20.68,1.07a45,45,0,0,1-7.33.21c-2.44,0-3.66-.85-3.66-2.57a2.32,2.32,0,0,1,.64-1.72q.65-.85,9.24-7.51,6.65-5.16,6.65-9.24V169.74a38.2,38.2,0,0,0-5.15-.43A50.81,50.81,0,0,0,102.07,176q-13.74,8-13.74,20.83,0,6.22,2.79,10.09a17.64,17.64,0,0,0,5.37,4.51q3.65,2.15,9.88,2.14a11.63,11.63,0,0,0,3.86-.43c1.72-.43,2.58.08,2.58,1.51a4,4,0,0,1-1.72,2.79,31.42,31.42,0,0,1-7.94,5.15,30.62,30.62,0,0,1-13.1,3q-10.74,0-18.25-5.8-9.24-7.08-9.23-20,0-14.38,7.73-24.69,6.65-8.6,19.32-15.25a62.06,62.06,0,0,1,16.32-5.79A120,120,0,0,1,133,151.28V107.9q0-4.08-6.44-9.23-4.72-3.65-9.45-7.52a3.24,3.24,0,0,1-.32-2.57c.22-1.15,1.33-1.72,3.34-1.72a124.19,124.19,0,0,1,12.93.54q10.77.75,15.08.75,8.61,0,17.56-.65t10-.64c2.58,0,3.88.79,3.88,2.36a3.7,3.7,0,0,1-.87,2.36q-.43.65-8.92,7.09-6.75,5.16-6.75,9.23v45.95q17,8,41.23,14.28t43.37,6.33q15.24,0,23.62-1.5,13.1-2.36,30.06-10.09v-55q0-4.08-6.44-9.23-4.72-3.65-9.45-7.52a3.24,3.24,0,0,1-.32-2.57c.22-1.15,1.32-1.72,3.33-1.72a123.25,123.25,0,0,1,12.88.54q10.74.75,15,.75,8.59,0,17.5-.65t10-.64q3.86,0,3.86,2.36a3.69,3.69,0,0,1-.86,2.36q-.44.65-8.8,7.09-6.66,5.16-6.66,9.24V366.63q0,4.08,6.44,9Q346.43,382.2,346.85,382.82Z"/></g><path class="cls-6" d="M214.73,157.16A117.68,117.68,0,0,1,331,208.62a120,120,0,0,1,18.2,45.4V387.2c-17.61-1.29-31-16.34-30.34-33.3.63-16.06,13.69-29.58,30.34-30.77H214.73c-7.35,2.23-10,1.31-11.12,0-3.75-4.59,4.94-22.92,17.69-26.23,8.41-2.18,14.21,3.3,18.71-.51,3.42-2.89,1.16-7,3-16.14,2.65-13,10.59-21.53,13.15-24.22a53.93,53.93,0,0,1,16.68-11.6c20.45-9.16,40-2.69,42-2,24.34,8.46,33.17,30.63,34.38,33.8"/><path class="cls-6" d="M178.36,215.84a36.38,36.38,0,0,1-19-6.16c-1.69-1.15-15.53-10.93-15.39-27.19.16-18.62,18.52-28.48,20-29.24,18.21-9.4,37.75.58,44.63,4.1,2,1,27.12,14.36,32.84,42.07a55.93,55.93,0,0,1,1,14.88l-59,55.24s-42.12.57-42.58,0c-2.59-3.18,2-12.09,8.21-16.76,7.28-5.49,15.93-4.49,18.47-4.11Z"/><path class="cls-6" d="M140.17,197.88c2,3-3.2,12.48-36.71,42.07H72.16c-6.8,2.16-8.68.64-9.23,0-2.57-2.95,1.6-11.58,7.18-16.42,6.39-5.54,14.2-5.71,16.93-5.64L104,193.26c.18-2.06.73-4.76,2.57-5.64,3-1.46,6.85,3.51,13.33,6.67C130.45,199.45,138.26,195,140.17,197.88Z"/><path class="cls-6" d="M145,197.88a63.4,63.4,0,0,1-17.95-3.59c-5-1.79-18.62-6.84-28.22-20C88.19,159.67,86,139.88,92.17,123c.89-2.43,7.8-20.44,26.68-30.27,18.25-9.52,36.81-5.72,47.2-3.59,12,2.44,25.37,7.86,31.29,10.26,13,5.26,15.18,7.45,22.58,8.21,14.39,1.46,22.08-5.24,26.16-1,3.89,4,.25,13.5-2.05,19.49-1.78,4.66-5.27,14.18-14.88,22.07-4.53,3.71-11.44,9.39-20.52,9.23-7.83-.14-8.62-4.47-18.41-7-4.33-1.1-17.69-3.68-29.81,3.88-9.85,6.14-13.52,15.63-14.64,18.66a39.93,39.93,0,0,0-.76,24.95"/><path class="cls-6" d="M88.77,143.54a94.18,94.18,0,0,1,21.56-23.64c5.73-4.47,12.74-9.92,23.39-13.34,20.13-6.46,39.46-1.21,46.23,1,7,2.31,11.3,4.91,23.39,8.2,6.77,1.84,12.47,2.94,16.32,3.6"/><path class="cls-6" d="M213.38,106.19a40.5,40.5,0,0,0,5.51,13.71,41.94,41.94,0,0,0,18.62,15.71"/><circle class="cls-6" cx="131.17" cy="74.98" r="11.56"/><circle class="cls-7" cx="171.37" cy="113.13" r="9.68"/><path class="cls-6" d="M212.42,242.45A46.22,46.22,0,0,1,233.47,256a49.55,49.55,0,0,1,10.66,20"/></svg>