<svg id="Layer_1" data-name="Layer 1" xmlns="http://www.w3.org/2000/svg" viewBox="0 0 430 493.8"><defs><style>.cls-1{fill:#ff8b00;}.cls-1,.cls-3,.cls-6,.cls-7{stroke:#000;stroke-miterlimit:10;}.cls-1,.cls-3{stroke-width:4px;}.cls-2{fill:#0162af;}.cls-3,.cls-6{fill:none;}.cls-4{opacity:0.29;}.cls-5{fill:#ffc;}.cls-6,.cls-7{stroke-width:6px;}</style></defs><path class="cls-1" d="M62.33,2.6A98.63,98.63,0,0,0,72,9.24c2.3,1.37,5.89,3.4,19.91,9.19s17.38,6.63,20.94,7.15a55.55,55.55,0,0,0,10.21.51l52.59.05a19.48,19.48,0,0,1,9.71,0c5.13,1.39,7.86,4.67,12.25,9.14,9.61,9.77,14.42,14.66,18.17,14.71,3.34,0,4.88-2,19.27-15.52,3.81-3.57,6.95-6.47,9-8.38l27.57.2a184.69,184.69,0,0,0,27.58,0,150.8,150.8,0,0,0,30.13-4.8A131,131,0,0,0,368.72,3.11L416.21,46c5.28,5,8.68,8.17,8.68,8.17S413.65,78.25,408,92.47c-9.3,23.55-12.18,42.95-14.3,57.19a303.91,303.91,0,0,0-2.05,72.51c1.76,19,4.71,48.25,19.92,82.21,5.81,13,11.38,23.52,16.34,30.13,1.53,2-30.13,53.62-30.13,53.62-.94,2.83-2.69,6.38-6.13,8.17s-6.27.7-10.72,1c-5,.36-8.24,2.22-14.3,5.62-8.6,4.82-9.92,7.68-19.4,14.81-3.66,2.75-3.12,2.06-19.92,12.76s-16.06,10.59-19.91,12.77c-12.86,7.29-15.52,5.59-30.64,12.25-9.7,4.28-25.86,11.4-42.42,25-8.3,6.81-12.13,11.49-18.86,11.28s-10.05-5.33-19.4-12.77c-4.54-3.61-13.24-8.19-30.64-17.36-3.79-2-16.65-8.72-34.21-16.85-16.67-7.71-18.61-7.92-27.06-12.77S88.8,423.2,80.72,416.21c-5.4-4.66-11.14-8.91-16.34-13.78-3.29-3.08-5.26-5.13-8.69-6.13-5.94-1.74-11.83,1-15.31,3.06L6.16,343.19A14.76,14.76,0,0,1,2.08,335c-1-8.15,7-13.53,13.79-24,3.17-4.9,5.17-10.93,9.19-23,9.3-27.91,12.24-55.65,12.76-60.76a313.47,313.47,0,0,0-2.55-82.73A305.7,305.7,0,0,0,4.63,53.66Z"/><path class="cls-2" d="M220.26,418.13s0,.24,0,.24c.66,0,0-168.66,0-168.66l136.32.54,22.42.55h0c.58,0,1,0,1.36,0,.16,0,.69.19.69.19l2.25,3.52.48,2.34s.69,3.23,1,4.55c.38,1.76,1,4.3,1.78,7.49q1.44,5.16,2.86,10.32a149.87,149.87,0,0,0,8.18,23.22c4.09,9.12,6.13,13.68,9.47,17.2,2.71,2.86,4.86,4.16,5.54,7.09,1.12,4.84-2.74,9.89-6.31,13.51l-19.55,34.68a63.31,63.31,0,0,1-9,12,2.8,2.8,0,0,0-4.13,1.47,1.63,1.63,0,0,0-.21-.78c-1-1.87-5.72-1.07-7.26-.81-8.15,1.37-28.25,19.62-38.9,27.46-5.35,3.93-19.66,10.74-48.28,24.34-4.8,2.29-8.8,4.16-11.57,5.44A163.63,163.63,0,0,1,251,453c-4.13,1.95-8.11,3.61-11.88,5L220.26,474.4C220.05,431.8,220.1,418.13,220.26,418.13Z"/><path class="cls-2" d="M208.87,416.77s0,.24,0,.24c-.65,0,0-166.36,0-166.36l-135.32.54-22.26.55h0c-.58,0-1,0-1.35,0-.16,0-.69.19-.69.19L47,255.42l-.47,2.31s-.69,3.19-1,4.48c-.38,1.74-1,4.24-1.77,7.39q-1.42,5.1-2.83,10.18c-1.19,11.34-4.87,18.45-8.12,22.9-1.21,1.66-5.57,7.35-11,15.57-2.4,3.61-3.61,5.6-3.86,8.39-.56,6.21,4.12,11.27,6.26,13.33q9.7,17.1,19.4,34.21c1.6,2.37,3.21,4.75,4.86,7.15s3.33,4.83,5,7.2c.67-.25,1.77-.66,3.17-1.07a51.56,51.56,0,0,1,7.41-1.57c6.08-.77,26.61,18.3,38.62,27.08,5.31,3.88,19.51,10.59,47.92,24,4.77,2.25,8.75,4.09,11.49,5.36a161.66,161.66,0,0,0,16.29,8.81c4.1,1.92,8,3.57,11.8,5l18.7,16.13C209.08,430.25,209,416.77,208.87,416.77Z"/><path class="cls-2" d="M220.62,68.22c20.07,19.24,14.76,54.47,13,67-6.87,48.94-4.27,98.8-9,148-3.73,38.77-3.08,95.17,19,167-5.73,10.8-14.6,23.56-26,24-18.73.71-33.79-32.26-39-43-17.48-36-53.54-88.67-135-162l7.67-31.33h0c-1.16,0-1.77,0-2-.2-.5-.38.14-1.47.5-4.37.1-.84.34-3.36.26-2.52.44-4.56.45-4.65.45-4.65.82-8.41,2.55-11.63,2.55-21.32h0c-.12-5.08-.52-16.3-2-30.27-2-18.33-4.06-32.28-8.88-50.42A284.54,284.54,0,0,0,20.53,68L72.4,17.12c.93.74,2.26,1.77,3.89,3h0A119.72,119.72,0,0,0,92.85,30.16a220.53,220.53,0,0,0,27.8,11.14c10.47.59,21.4,1,32.77,1.07,12,.11,23.45-.1,34.42-.55l21,18.5A42,42,0,0,1,220.62,68.22Z"/><path class="cls-2" d="M220.62,62.22a39.62,39.62,0,0,0-5,3c-45.76,32.12-13.42,150.84-1,192l168,13a102.64,102.64,0,0,1-2-19s0-8.83-.63-13.67c0-.34-.22-2.07-.52-4.37-.1-.84-.35-3.36-.27-2.52l-.46-4.65c-.86-8.41-2.65-11.62-2.65-21.32h0c.13-5.08.54-16.29,2.1-30.27,2.05-18.33,4.2-32.28,9.2-50.42a278.74,278.74,0,0,1,22.35-56.14L356,17c-1,.73-2.34,1.76-4,3A139.86,139.86,0,0,1,334.82,30c-15.41,7.42-39.31,10.51-39.31,10.51a217,217,0,0,1-54.11.09Z"/><path class="cls-3" d="M73.81,20a91.07,91.07,0,0,0,9,6.17c2.13,1.28,5.46,3.16,18.45,8.53s16.11,6.17,19.4,6.65a52.16,52.16,0,0,0,9.46.47l48.74,0a18,18,0,0,1,9,0c4.75,1.29,7.28,4.34,11.35,8.49C208.1,59.39,212.55,63.93,216,64c3.09,0,4.52-1.88,17.85-14.42,3.53-3.31,6.44-6,8.37-7.78L267.8,42a171.08,171.08,0,0,0,25.55,0,139.36,139.36,0,0,0,27.91-4.46A121.19,121.19,0,0,0,357.7,20.42l44,39.85,8,7.59s-10.41,22.37-15.61,35.58c-8.61,21.88-11.29,39.89-13.25,53.13A283.12,283.12,0,0,0,379,223.93c1.63,17.67,4.36,44.82,18.45,76.37,5.38,12.05,10.55,21.85,15.14,28,1.42,1.9-27.91,49.81-27.91,49.81-.88,2.63-2.5,5.92-5.68,7.59s-5.82.64-9.94.95c-4.6.33-7.63,2.06-13.25,5.21-8,4.48-9.19,7.14-18,13.76-3.39,2.56-2.89,1.92-18.45,11.86s-14.89,9.83-18.45,11.86c-11.91,6.77-14.38,5.19-28.39,11.38-9,4-24,10.59-39.3,23.21-7.7,6.32-11.25,10.67-17.48,10.47s-9.31-4.95-18-11.86c-4.2-3.35-12.26-7.61-28.38-16.12-3.52-1.86-15.43-8.11-31.7-15.66-15.45-7.16-17.25-7.35-25.08-11.86s-14.27-8.21-21.77-14.7c-5-4.33-10.31-8.29-15.14-12.81-3-2.86-4.87-4.76-8-5.69-5.51-1.62-11,.91-14.19,2.84l-31.7-52.18A13.67,13.67,0,0,1,18,328.76c-.88-7.57,6.51-12.57,12.77-22.29,2.94-4.56,4.8-10.16,8.52-21.35,8.62-25.93,11.35-51.7,11.83-56.45a291.74,291.74,0,0,0-2.37-76.85A284.43,284.43,0,0,0,20.35,67.39Z"/><g class="cls-4"><path class="cls-5" d="M358.76,375q0,8.22-8.78,13a36.73,36.73,0,0,1-18,4.21,79.52,79.52,0,0,1-43-12.05q-17.39-10.89-30-30.78-6.51-10.51-11.08-26.58-1.35-4.77-6.5-28.49-3.63-16.81-7.64-26.77a111.09,111.09,0,0,1-12,2.78,68.64,68.64,0,0,1-11.78,1.05q-13,0-20.89-4.21-9.37-5-9.38-14.91,0-8.79,9.19-14,7.84-4.4,18.77-4.4A48.84,48.84,0,0,1,227.38,238a35.41,35.41,0,0,1,15.23,12.34q18.88-9.57,32.05-30,14.5-22.38,14.51-47.61,0-37.09-25.43-61.95t-65.2-24.86q-21.22,0-32.51,1.72a115.09,115.09,0,0,0-34.42,11.28,82,82,0,0,0-21,15.11q-10.71,10.89-10.7,20.84c-.13,1.53-.2,2.55-.2,3.06a18,18,0,0,0,2.39,9.37,7.67,7.67,0,0,0,7,4,9,9,0,0,0,6.31-2.1c1.53-1.4,2.74-4,3.63-7.84.39-1.53,1-2.29,1.73-2.29s1.34.51,1.72,1.52q3.06,3.65,3.06,10.33a17.14,17.14,0,0,1-5.74,13A19.46,19.46,0,0,1,106,169.28,18.57,18.57,0,0,1,90.79,162,27.2,27.2,0,0,1,85,144.42q0-16.63,12.05-31,9.36-11.28,25.81-20.65a148.51,148.51,0,0,1,43.59-16.63q17.79-3.63,44.36-3.63,45.12,0,76.68,25.62,32.69,26.58,32.69,66.15,0,33.09-21.39,60.81A114.44,114.44,0,0,1,251,261.82a124.62,124.62,0,0,1,13,21q6.12,12.24,12.23,28.3,9.36,24.28,13.18,32.31,8.79,18.54,17.77,28.3,11.07,12,24.07,12.05a19.84,19.84,0,0,0,9-2.11,8,8,0,0,0,4.78-6.31,19.38,19.38,0,0,0-.48-5.06,8.09,8.09,0,0,0-1.72-3.06,4.1,4.1,0,0,1-1.24-2.2c0-.64.5-1.15,1.52-1.53q4.21-.77,9.95,2.48T358.76,375Zm-178-32.43a2.74,2.74,0,0,1,.58,1.26,3.85,3.85,0,0,1,.2,1.06q0,2.19-3.45,2.19a107.11,107.11,0,0,1-11.42-.47q-9.5-.67-13.14-1.82-6.15,0-18.42,1a42.79,42.79,0,0,1-6.52.19c-2.18,0-3.26-.77-3.26-2.3a2.1,2.1,0,0,1,.57-1.53,102.35,102.35,0,0,1,8.22-6.69q5.93-4.59,5.93-8.22V149q0-5.92-3.44-8.61a52.3,52.3,0,0,0-6.12-2.86c-1.28-.51-1.91-1.15-1.91-1.92s.76-1.65,2.3-3.06q5.56-3,10-5.54,3.27-1.72,9.6-5.74t17.28-12.62a68.22,68.22,0,0,1,6.52-4.78c1.28-.38,2.18-.25,2.69.39a2.5,2.5,0,0,1,0,2.68,148.13,148.13,0,0,0-7.5,15.21,32.33,32.33,0,0,0-2.63,12.34V327.39q0,3.64,5.81,8Q180.35,342,180.74,342.58Zm48.13-86.12a19,19,0,0,0-8.59-9.36,26,26,0,0,0-13.17-3.64,19.57,19.57,0,0,0-9.54,2.3c-2.8,1.53-4.2,3.69-4.2,6.5q0,5.16,5.73,7.45a31.75,31.75,0,0,0,11.45,1.73,39.35,39.35,0,0,0,9.63-1.34A28.14,28.14,0,0,0,228.87,256.46Z"/></g><path class="cls-6" d="M201.28,124.75c-.46-1.75-.46-8.57-.18-14a37.71,37.71,0,0,1,.75-7c6.21-18.32,25.37-23.94,27.33-24.48h74.58l42.71,107.61-38.72-35.3v23.34c-8.17-4.1-14.76-7.69-19.36-10.25-14.67-8.19-13.74-8.65-20.46-11.65-11.68-5.22-16.26-4.62-18.82-9.42-2.47-4.61.33-7.83-.57-15.37-.95-7.81-5.1-13.77-8.54-17.65l-38.9.19"/><path class="cls-6" d="M238,79.2q.44,15.66.85,31.32"/><path class="cls-7" d="M256.22,93.15c.81-1.62,4.91-1.56,13.1-1.43,7.48.12,11.23.21,11.95,1.71,1.52,3.15-4.7,12.3-12.49,12.3S254.64,96.3,256.22,93.15Z"/><path class="cls-6" d="M228.8,143.91c4.63-1.45,9.09-1,13.66,0a79,79,0,0,1,23.92,9.87c9.79,6.49,21.26,14.08,26.95,28.85,7,18.23.2,35.49-2.28,41.75-2.56,6.47-9.68,21.63-44.41,45.55a326.37,326.37,0,0,1-53.14,29.61c-25.29,11.4-59,25.77-100.21,41L99,332.19l-11,2.65L217.41,151.51a24.75,24.75,0,0,1,4.56-4.18A26.22,26.22,0,0,1,228.8,143.91Z"/><path class="cls-6" d="M338.28,179.34a133.21,133.21,0,0,1-2.44,21.89,136.23,136.23,0,0,1-18.22,45.93C303.69,269.32,287,281.47,277,288.53c-8.61,6.12-28.79,20.16-58.07,26.19a166.58,166.58,0,0,1-39.1,3,179.89,179.89,0,0,1-23.13-2.22"/><path class="cls-6" d="M122.47,329.42l-37.15,54h49a23.12,23.12,0,0,0,11.77,0c11.22-3.14,16.55-15.1,22.77-29.61a162,162,0,0,0,11-38"/><polyline class="cls-6" points="292.84 276.21 292.84 297.26 331.69 297.26"/><path class="cls-6" d="M311.17,329.15c-1.7-2.15-3.58-5.35-3.42-9.11.14-3.36,1.89-6.66,17.46-18.6,12.22-9.37,15.2-10.46,18.22-11,2.74-.49,9.89-1.79,15.94,2.66a17.81,17.81,0,0,1,6.08,8.35"/><path class="cls-6" d="M331.69,296.62a19.68,19.68,0,0,1,7.19,6,20.11,20.11,0,0,1,3.79,12.52"/><polyline class="cls-6" points="220.23 317.88 220.23 338.93 259.08 338.93"/><path class="cls-6" d="M238.56,370.82c-1.69-2.15-3.58-5.35-3.42-9.11.14-3.36,1.9-6.66,17.46-18.6,12.22-9.37,15.2-10.46,18.22-11,2.74-.49,9.89-1.79,15.94,2.66a17.81,17.81,0,0,1,6.08,8.35"/><path class="cls-6" d="M259.08,338.29a19.68,19.68,0,0,1,7.19,6,20,20,0,0,1,3.79,12.52"/></svg>