<svg id="Layer_1" data-name="Layer 1" xmlns="http://www.w3.org/2000/svg" viewBox="0 0 430 493.8"><defs><style>.cls-1{fill:#ff8b00;}.cls-1,.cls-3,.cls-6,.cls-7{stroke:#000;stroke-miterlimit:10;}.cls-1,.cls-3{stroke-width:4px;}.cls-2{fill:#006839;}.cls-3,.cls-6{fill:none;}.cls-4{opacity:0.4;}.cls-5{fill:#ffc;}.cls-6,.cls-7{stroke-width:6px;}</style></defs><path class="cls-1" d="M62.33,2.6A98.63,98.63,0,0,0,72,9.24c2.3,1.37,5.89,3.4,19.91,9.19s17.38,6.63,20.94,7.15a55.55,55.55,0,0,0,10.21.51l52.59.05a19.48,19.48,0,0,1,9.71,0c5.13,1.39,7.86,4.67,12.25,9.14,9.61,9.77,14.42,14.66,18.17,14.71,3.34,0,4.88-2,19.27-15.52,3.81-3.57,6.95-6.47,9-8.38l27.57.2a184.69,184.69,0,0,0,27.58,0,150.8,150.8,0,0,0,30.13-4.8A131,131,0,0,0,368.72,3.11L416.21,46c5.28,5,8.68,8.17,8.68,8.17S413.65,78.25,408,92.47c-9.3,23.55-12.18,42.95-14.3,57.19a303.91,303.91,0,0,0-2.05,72.51c1.76,19,4.71,48.25,19.92,82.21,5.81,13,11.38,23.52,16.34,30.13,1.53,2-30.13,53.62-30.13,53.62-.94,2.83-2.69,6.38-6.13,8.17s-6.27.7-10.72,1c-5,.36-8.24,2.22-14.3,5.62-8.6,4.82-9.92,7.68-19.4,14.81-3.66,2.75-3.12,2.06-19.92,12.76s-16.06,10.59-19.91,12.77c-12.86,7.29-15.52,5.59-30.64,12.25-9.7,4.28-25.86,11.4-42.42,25-8.3,6.81-12.13,11.49-18.86,11.28s-10.05-5.33-19.4-12.77c-4.54-3.61-13.24-8.19-30.64-17.36-3.79-2-16.65-8.72-34.21-16.85-16.67-7.71-18.61-7.92-27.06-12.77S88.8,423.2,80.72,416.21c-5.4-4.66-11.14-8.91-16.34-13.78-3.29-3.08-5.26-5.13-8.69-6.13-5.94-1.74-11.83,1-15.31,3.06L6.16,343.19A14.76,14.76,0,0,1,2.08,335c-1-8.15,7-13.53,13.79-24,3.17-4.9,5.17-10.93,9.19-23,9.3-27.91,12.24-55.65,12.76-60.76a313.47,313.47,0,0,0-2.55-82.73A305.7,305.7,0,0,0,4.63,53.66Z"/><path class="cls-2" d="M220.26,418.13s0,.24,0,.24c.66,0,0-168.66,0-168.66l136.32.54,22.42.55h0c.58,0,1,0,1.36,0,.16,0,.69.19.69.19l2.25,3.52.48,2.34s.69,3.23,1,4.55c.38,1.76,1,4.3,1.78,7.49q1.44,5.16,2.86,10.32a149.87,149.87,0,0,0,8.18,23.22c4.09,9.12,6.13,13.68,9.47,17.2,2.71,2.86,4.86,4.16,5.54,7.09,1.12,4.84-2.74,9.89-6.31,13.51l-19.55,34.68a63.31,63.31,0,0,1-9,12,2.8,2.8,0,0,0-4.13,1.47,1.63,1.63,0,0,0-.21-.78c-1-1.87-5.72-1.07-7.26-.81-8.15,1.37-28.25,19.62-38.9,27.46-5.35,3.93-19.66,10.74-48.28,24.34-4.8,2.29-8.8,4.16-11.57,5.44A163.63,163.63,0,0,1,251,453c-4.13,1.95-8.11,3.61-11.88,5L220.26,474.4C220.05,431.8,220.1,418.13,220.26,418.13Z"/><path class="cls-2" d="M208.87,416.77s0,.24,0,.24c-.65,0,0-166.36,0-166.36l-135.32.54-22.26.55h0c-.58,0-1,0-1.35,0-.16,0-.69.19-.69.19L47,255.42l-.47,2.31s-.69,3.19-1,4.48c-.38,1.74-1,4.24-1.77,7.39q-1.42,5.1-2.83,10.18c-1.19,11.34-4.87,18.45-8.12,22.9-1.21,1.66-5.57,7.35-11,15.57-2.4,3.61-3.61,5.6-3.86,8.39-.56,6.21,4.12,11.27,6.26,13.33q9.7,17.1,19.4,34.21c1.6,2.37,3.21,4.75,4.86,7.15s3.33,4.83,5,7.2c.67-.25,1.77-.66,3.17-1.07a51.56,51.56,0,0,1,7.41-1.57c6.08-.77,26.61,18.3,38.62,27.08,5.31,3.88,19.51,10.59,47.92,24,4.77,2.25,8.75,4.09,11.49,5.36a161.66,161.66,0,0,0,16.29,8.81c4.1,1.92,8,3.57,11.8,5l18.7,16.13C209.08,430.25,209,416.77,208.87,416.77Z"/><path class="cls-2" d="M220.62,68.22c20.07,19.24,14.76,54.47,13,67-6.87,48.94-4.27,98.8-9,148-3.73,38.77-3.08,95.17,19,167-5.73,10.8-14.6,23.56-26,24-18.73.71-33.79-32.26-39-43-17.48-36-53.54-88.67-135-162l7.67-31.33h0c-1.16,0-1.77,0-2-.2-.5-.38.14-1.47.5-4.37.1-.84.34-3.36.26-2.52.44-4.56.45-4.65.45-4.65.82-8.41,2.55-11.63,2.55-21.32h0c-.12-5.08-.52-16.3-2-30.27-2-18.33-4.06-32.28-8.88-50.42A284.54,284.54,0,0,0,20.53,68L72.4,17.12c.93.74,2.26,1.77,3.89,3h0A119.72,119.72,0,0,0,92.85,30.16a220.53,220.53,0,0,0,27.8,11.14c10.47.59,21.4,1,32.77,1.07,12,.11,23.45-.1,34.42-.55l21,18.5A42,42,0,0,1,220.62,68.22Z"/><path class="cls-2" d="M220.62,62.22a39.62,39.62,0,0,0-5,3c-45.76,32.12-13.42,150.84-1,192l168,13a102.64,102.64,0,0,1-2-19s0-8.83-.63-13.67c0-.34-.22-2.07-.52-4.37-.1-.84-.35-3.36-.27-2.52l-.46-4.65c-.86-8.41-2.65-11.62-2.65-21.32h0c.13-5.08.54-16.29,2.1-30.27,2.05-18.33,4.2-32.28,9.2-50.42a278.74,278.74,0,0,1,22.35-56.14L356,17c-1,.73-2.34,1.76-4,3A139.86,139.86,0,0,1,334.82,30c-15.41,7.42-39.31,10.51-39.31,10.51a217,217,0,0,1-54.11.09Z"/><path class="cls-3" d="M73.81,20a91.07,91.07,0,0,0,9,6.17c2.13,1.28,5.46,3.16,18.45,8.53s16.11,6.17,19.4,6.65a52.16,52.16,0,0,0,9.46.47l48.74,0a18,18,0,0,1,9,0c4.75,1.29,7.28,4.34,11.35,8.49C208.1,59.39,212.55,63.93,216,64c3.09,0,4.52-1.88,17.85-14.42,3.53-3.31,6.44-6,8.37-7.78L267.8,42a171.08,171.08,0,0,0,25.55,0,139.36,139.36,0,0,0,27.91-4.46A121.19,121.19,0,0,0,357.7,20.42l44,39.85,8,7.59s-10.41,22.37-15.61,35.58c-8.61,21.88-11.29,39.89-13.25,53.13A283.12,283.12,0,0,0,379,223.93c1.63,17.67,4.36,44.82,18.45,76.37,5.38,12.05,10.55,21.85,15.14,28,1.42,1.9-27.91,49.81-27.91,49.81-.88,2.63-2.5,5.92-5.68,7.59s-5.82.64-9.94.95c-4.6.33-7.63,2.06-13.25,5.21-8,4.48-9.19,7.14-18,13.76-3.39,2.56-2.89,1.92-18.45,11.86s-14.89,9.83-18.45,11.86c-11.91,6.77-14.38,5.19-28.39,11.38-9,4-24,10.59-39.3,23.21-7.7,6.32-11.25,10.67-17.48,10.47s-9.31-4.95-18-11.86c-4.2-3.35-12.26-7.61-28.38-16.12-3.52-1.86-15.43-8.11-31.7-15.66-15.45-7.16-17.25-7.35-25.08-11.86s-14.27-8.21-21.77-14.7c-5-4.33-10.31-8.29-15.14-12.81-3-2.86-4.87-4.76-8-5.69-5.51-1.62-11,.91-14.19,2.84l-31.7-52.18A13.67,13.67,0,0,1,18,328.76c-.88-7.57,6.51-12.57,12.77-22.29,2.94-4.56,4.8-10.16,8.52-21.35,8.62-25.93,11.35-51.7,11.83-56.45a291.74,291.74,0,0,0-2.37-76.85A284.43,284.43,0,0,0,20.35,67.39Z"/><g class="cls-4"><path class="cls-5" d="M330.06,298.19q0,44.42-37.22,73.81-35.11,27.72-83.33,27.71-44,0-74.24-21.15-33.63-23.68-33.63-64.3,0-28.54,23.37-49t56.16-20.41q31.92,0,51.81,12.27,22.22,13.75,22.21,38.92,0,18.39-14.91,30.56A53.1,53.1,0,0,1,205.7,338.8q-18,0-30.24-6.77-14.6-8-14.6-22.84,0-8.88,7.4-14.81,5.72-4.65,10.16-5.28c3-.43,4.58-.64,4.86-.64,1.13,0,1.69.42,1.69,1.27l-.84,2.54a20.89,20.89,0,0,0-.85,2.54,32.13,32.13,0,0,0-1.27,9.3q0,6.56,6.66,11.32a24.43,24.43,0,0,0,14.49,4.76q13.11,0,21.78-8a26,26,0,0,0,8.68-19.88q0-17.77-17.56-27.71-15.23-8.67-36.59-8.67-27.28,0-47.16,16.07-20.94,16.94-20.94,42.3,0,33,31.51,52.88Q171,384.9,209.93,384.9q39.54,0,67.89-24.53,29.4-25.38,29.4-63,0-20.5-9.73-35.95-8.46-13.53-26-26-12-8.67-36.59-21.36-31.29-14.81-62.39-29.83Q141,165.8,141,140.84q0-24.75,25.17-38.49Q187.93,90.5,219.23,90.5q23.91,0,37.86,5.29,19.25,7.18,19.25,23.9A16.82,16.82,0,0,1,271,131.85q-5.4,5.39-9.52,5.82t-6,.42a18.45,18.45,0,0,1-7.83-1.48c-1.55-1.13-2.32-1.83-2.32-2.12a4,4,0,0,1,1.48-2.53,18.38,18.38,0,0,0,4.23-6.24,19,19,0,0,0,1.27-6.88q0-10.35-11.42-15.65Q231.71,99,218,99q-22.2,0-37,7-18,8.46-18,24.32,0,11.64,12.9,21.36,9.09,6.78,31.72,16.71,33.63,14.6,39.13,17.34,28.34,13.76,43.14,25.17,19.89,15.22,29.4,34.48Q330.05,267.1,330.06,298.19Z"/></g><path class="cls-6" d="M90.86,167c.61-5.48,8.65-5.52,20.69-13.79,13.22-9.08,11.43-14.47,26-23.86,6.43-4.15,11.8-7.54,19.63-8.49,8.51-1,11.63,1.82,18,0,8-2.28,11.45-9.11,16.45-15.91a107.73,107.73,0,0,1,33.41-28.11c4.49-2.36,23.93-12.18,47.74-6.37,4.83,1.18,28.42,6.94,40.31,29.7,11.7,22.42,3.38,44.69,1.06,50.92-7,18.85-20.52,29.37-28.64,35.54-14.43,11-21.23,10-52.51,23.87-26.32,11.64-21.19,12.16-43.5,21.74-34.73,14.92-48.63,14.29-59.4,29.7-.74,1.07-12,17.58-5.84,27.06,6,9.17,24.54,5.92,28.12,5.3,14.44-2.53,21.17-9.53,37.12-20.69,8.3-5.8,28.36-19.66,53-29.17,27.12-10.44,42.54-9,46.68-8.48,9.13,1.07,21.15,2.5,30.23,11.66,14,14.08,13.33,38.68,5.31,54.64-7,13.83-19.46,21.14-35,30.23-10.64,6.21-13.52,6-28.11,14.32-16.31,9.34-24.46,14-28.11,19.62-13.77,21.16,7,52.61-.53,56.76-4.7,2.59-15.44-8.22-20.16-14.32-2.16-2.81-11.23-15.18-10.08-32.36,1-15.58,9.87-25.8,16.45-33.41,17.72-20.53,42.31-28.63,44-29.18,10-3.17,16.21-3.2,23.34-9.54,1.7-1.52,13.61-12.11,10.07-23.34-2.44-7.76-11.09-12.1-18-12.73-8-.73-13.77,3.47-22.28,9-11.15,7.26-23.22,13-34.47,20.15-17.37,11-33.79,21.39-55.16,28.64-18.29,6.21-30.6,10.39-44.56,5.31-16.94-6.17-24.93-21.85-27.58-27.05-1.78-3.51-12.27-24.1-4.24-45.09,4.51-11.79,13-18.95,28.64-29.17a429.92,429.92,0,0,1,66.83-35.54c6.86-3,54.25-23.37,83.8-46.14,3.18-2.45,10.23-8.07,11.67-17,1.5-9.27-3.41-20-11.67-24.93-12.06-7.15-27.26.57-35.53,4.77-5.81,3-2.62,2.47-20.16,14.85-13.43,9.49-18.19,11.82-22.8,19.1-2.62,4.12-2,4.83-6.37,12.2-4.76,8.05-7.28,12.3-11.67,15.38-4.13,2.89-6.46,2.32-19.62,4.24-16.27,2.37-16,3.73-27.58,4.77-11.29,1-17.07,1.47-23.34-1.59C97.92,178.05,90.24,172.61,90.86,167Z"/><path class="cls-7" d="M143.37,154.31c.65-1.76,3.61-1.46,10.08-2.65,9.55-1.76,12.41-4.15,13.79-2.65,1.72,1.87-.58,8-4.78,11.14a13.33,13.33,0,0,1-14.85.53C145.44,159.25,142.63,156.31,143.37,154.31Z"/><path class="cls-6" d="M274.85,110.94a49.44,49.44,0,0,1,17.56,9.43c16.34,13.74,18,33.9,18.24,38.54"/><path class="cls-6" d="M127.46,289.3a34.72,34.72,0,0,0-3.72,14.93c-.23,16.31,11.75,27.19,14.28,29.39"/><path class="cls-6" d="M290.91,300a58.43,58.43,0,0,1-.09,13.46,59.37,59.37,0,0,1-7.74,22.71"/><path class="cls-6" d="M94.68,174.87a53.91,53.91,0,0,0-27.16,37.79"/><path class="cls-6" d="M75.23,193a50.09,50.09,0,0,0,7.14,23.34"/></svg>